{
 "cells": [
  {
   "cell_type": "code",
   "execution_count": 1,
   "id": "6278ecfa-6643-4988-8e83-f106a875da70",
   "metadata": {},
   "outputs": [
    {
     "ename": "ModuleNotFoundError",
     "evalue": "No module named 'xgboost'",
     "output_type": "error",
     "traceback": [
      "\u001b[1;31m---------------------------------------------------------------------------\u001b[0m",
      "\u001b[1;31mModuleNotFoundError\u001b[0m                       Traceback (most recent call last)",
      "\u001b[1;32m~\\AppData\\Local\\Temp\\ipykernel_26916\\4144864235.py\u001b[0m in \u001b[0;36m<module>\u001b[1;34m\u001b[0m\n\u001b[1;32m----> 1\u001b[1;33m \u001b[1;32mfrom\u001b[0m \u001b[0mfunctions\u001b[0m\u001b[1;33m.\u001b[0m\u001b[0mfunctions\u001b[0m \u001b[1;32mimport\u001b[0m \u001b[1;33m*\u001b[0m\u001b[1;33m\u001b[0m\u001b[1;33m\u001b[0m\u001b[0m\n\u001b[0m\u001b[0;32m      2\u001b[0m \u001b[1;31m#from functions.mujoco_functions import *\u001b[0m\u001b[1;33m\u001b[0m\u001b[1;33m\u001b[0m\u001b[1;33m\u001b[0m\u001b[0m\n\u001b[0;32m      3\u001b[0m \u001b[1;32mfrom\u001b[0m \u001b[0mlamcts1\u001b[0m \u001b[1;32mimport\u001b[0m \u001b[0mMCTS\u001b[0m\u001b[1;33m\u001b[0m\u001b[1;33m\u001b[0m\u001b[0m\n\u001b[0;32m      4\u001b[0m \u001b[1;32mimport\u001b[0m \u001b[0mwarnings\u001b[0m\u001b[1;33m\u001b[0m\u001b[1;33m\u001b[0m\u001b[0m\n\u001b[0;32m      5\u001b[0m \u001b[0mwarnings\u001b[0m\u001b[1;33m.\u001b[0m\u001b[0mfilterwarnings\u001b[0m\u001b[1;33m(\u001b[0m\u001b[1;34m\"ignore\"\u001b[0m\u001b[1;33m)\u001b[0m\u001b[1;33m\u001b[0m\u001b[1;33m\u001b[0m\u001b[0m\n",
      "\u001b[1;32m~\\LA-MCTS22\\functions\\functions.py\u001b[0m in \u001b[0;36m<module>\u001b[1;34m\u001b[0m\n\u001b[0;32m      8\u001b[0m \u001b[1;32mimport\u001b[0m \u001b[0mjson\u001b[0m\u001b[1;33m\u001b[0m\u001b[1;33m\u001b[0m\u001b[0m\n\u001b[0;32m      9\u001b[0m \u001b[1;32mimport\u001b[0m \u001b[0mos\u001b[0m\u001b[1;33m\u001b[0m\u001b[1;33m\u001b[0m\u001b[0m\n\u001b[1;32m---> 10\u001b[1;33m \u001b[1;32mfrom\u001b[0m \u001b[0mxgboost\u001b[0m \u001b[1;32mimport\u001b[0m \u001b[0mXGBRegressor\u001b[0m\u001b[1;33m\u001b[0m\u001b[1;33m\u001b[0m\u001b[0m\n\u001b[0m\u001b[0;32m     11\u001b[0m \u001b[1;32mimport\u001b[0m \u001b[0mimageio\u001b[0m\u001b[1;33m\u001b[0m\u001b[1;33m\u001b[0m\u001b[0m\n\u001b[0;32m     12\u001b[0m \u001b[1;32mclass\u001b[0m \u001b[0mNpEncoder\u001b[0m\u001b[1;33m(\u001b[0m\u001b[0mjson\u001b[0m\u001b[1;33m.\u001b[0m\u001b[0mJSONEncoder\u001b[0m\u001b[1;33m)\u001b[0m\u001b[1;33m:\u001b[0m\u001b[1;33m\u001b[0m\u001b[1;33m\u001b[0m\u001b[0m\n",
      "\u001b[1;31mModuleNotFoundError\u001b[0m: No module named 'xgboost'"
     ]
    }
   ],
   "source": [
    "from functions.functions import *\n",
    "#from functions.mujoco_functions import *\n",
    "from lamcts1 import MCTS\n",
    "import warnings\n",
    "warnings.filterwarnings(\"ignore\")"
   ]
  },
  {
   "cell_type": "code",
   "execution_count": null,
   "id": "72aca64b-3ab4-4d57-b7f7-25192a1949c5",
   "metadata": {},
   "outputs": [],
   "source": [
    "pip install xgboost"
   ]
  },
  {
   "cell_type": "code",
   "execution_count": 2,
   "id": "0f986716-11c3-4861-8279-676ce4c140de",
   "metadata": {},
   "outputs": [
    {
     "name": "stdout",
     "output_type": "stream",
     "text": [
      "Creation of the directory myFunc failed\n",
      "gamma_type: auto\n",
      "==========collect 10 points for initializing MCTS==========\n",
      "lb: [0. 0. 0. 0. 0. 0. 0. 0. 0. 0. 0. 0. 0. 0. 0. 0. 0. 0. 0. 0. 0. 0. 0. 0.\n",
      " 0. 0. 0. 0. 0. 0. 0. 0. 0. 0. 0. 0. 0. 0. 0. 0. 0. 0. 0. 0. 0. 0. 0. 0.\n",
      " 0. 0. 0. 0. 0. 0. 0. 0. 0. 0. 0. 0. 0. 0. 0. 0. 0. 0. 0. 0. 0. 0. 0. 0.]\n",
      "ub: [1. 1. 1. 1. 1. 1. 1. 1. 1. 1. 1. 1. 1. 1. 1. 1. 1. 1. 1. 1. 1. 1. 1. 1.\n",
      " 1. 1. 1. 1. 1. 1. 1. 1. 1. 1. 1. 1. 1. 1. 1. 1. 1. 1. 1. 1. 1. 1. 1. 1.\n",
      " 1. 1. 1. 1. 1. 1. 1. 1. 1. 1. 1. 1. 1. 1. 1. 1. 1. 1. 1. 1. 1. 1. 1. 1.]\n",
      "Cp: 60\n",
      "inits: 10\n",
      "dims: 72\n",
      "==========================================================\n",
      "\n",
      "==========\n",
      "iteration: 10\n",
      "==========\n",
      "----------------------------------------------------------------------------------------------------\n",
      "node0  is good:False  is leaf:True    val:-1447.7740      uct:inf            sp/n:10/10      parent:----       kids:\n",
      "----------------------------------------------------------------------------------------------------\n",
      "\n",
      "total samples: 11\n",
      "current best f(x): [[1320.33591686]]\n",
      "current best x: [0.29488134 0.79980593 0.11441493 0.09766028 0.1335345  0.42400207\n",
      " 0.54458526 0.9697095  0.42134708 0.29750242 0.80513741 0.64017566\n",
      " 0.13890042 0.47065171 0.24119758 0.90154633 0.77111355 0.30436184\n",
      " 0.82151221 0.83125642 0.53129955 0.01174114 0.69159065 0.12801198\n",
      " 0.35981002 0.01046064 0.35890218 0.01577854 0.42906639 0.76282805\n",
      " 0.96501044 0.34502988 0.60935365 0.44368123 0.10330265 0.08007208\n",
      " 0.24537232 0.60177511 0.27551955 0.21195264 0.03387052 0.74098277\n",
      " 0.92343321 0.03720708 0.62310837 0.06829807 0.07339338 0.51781294\n",
      " 0.26312116 0.87289293 0.47043011 0.63961992 0.57120023 0.93445677\n",
      " 0.12540518 0.2712585  0.24238105 0.64761902 0.84095662 0.43572283\n",
      " 0.33144569 0.18976112 0.21207612 0.34405243 0.6224256  0.58734038\n",
      " 0.6352973  0.85887341 0.29088871 0.44518657 0.88524467 0.69802509]\n",
      "lb [0. 0. 0. 0. 0. 0. 0. 0. 0. 0. 0. 0. 0. 0. 0. 0. 0. 0. 0. 0. 0. 0. 0. 0.\n",
      " 0. 0. 0. 0. 0. 0. 0. 0. 0. 0. 0. 0. 0. 0. 0. 0. 0. 0. 0. 0. 0. 0. 0. 0.\n",
      " 0. 0. 0. 0. 0. 0. 0. 0. 0. 0. 0. 0. 0. 0. 0. 0. 0. 0. 0. 0. 0. 0. 0. 0.]\n",
      "ub [1. 1. 1. 1. 1. 1. 1. 1. 1. 1. 1. 1. 1. 1. 1. 1. 1. 1. 1. 1. 1. 1. 1. 1.\n",
      " 1. 1. 1. 1. 1. 1. 1. 1. 1. 1. 1. 1. 1. 1. 1. 1. 1. 1. 1. 1. 1. 1. 1. 1.\n",
      " 1. 1. 1. 1. 1. 1. 1. 1. 1. 1. 1. 1. 1. 1. 1. 1. 1. 1. 1. 1. 1. 1. 1. 1.]\n",
      "\n",
      "==========\n",
      "iteration: 11\n",
      "==========\n",
      "----------------------------------------------------------------------------------------------------\n",
      "node0  is good:False  is leaf:True    val:-1439.2780      uct:inf            sp/n:11/11      parent:----       kids:\n",
      "----------------------------------------------------------------------------------------------------\n",
      "\n",
      "total samples: 12\n",
      "current best f(x): [[1267.00469641]]\n",
      "current best x: [0.16579237 0.84291176 0.10997828 0.51805795 0.24823428 0.80685951\n",
      " 0.53147844 0.35121842 0.49222438 0.49715603 0.09693698 0.53537528\n",
      " 0.01779654 0.90296215 0.17097637 0.10152607 0.32060057 0.16213004\n",
      " 0.33925259 0.79693762 0.34303402 0.24931087 0.54206314 0.82284848\n",
      " 0.56591408 0.50523107 0.55607926 0.43635258 0.0075913  0.49317252\n",
      " 0.13299142 0.0889905  0.80859979 0.68870835 0.09476645 0.86431424\n",
      " 0.09562137 0.21916775 0.91083429 0.05706539 0.63830871 0.09857149\n",
      " 0.6180822  0.1722975  0.39661051 0.53860623 0.71758534 0.35910001\n",
      " 0.7302409  0.63647075 0.30084226 0.2319302  0.70310168 0.1235907\n",
      " 0.4542089  0.19968683 0.03174832 0.56601089 0.46619054 0.63783641\n",
      " 0.23136642 0.90976021 0.83174959 0.36728187 0.0221727  0.37473476\n",
      " 0.25691999 0.5404427  0.21426988 0.25948426 0.97608566 0.66392879]\n",
      "lb [0. 0. 0. 0. 0. 0. 0. 0. 0. 0. 0. 0. 0. 0. 0. 0. 0. 0. 0. 0. 0. 0. 0. 0.\n",
      " 0. 0. 0. 0. 0. 0. 0. 0. 0. 0. 0. 0. 0. 0. 0. 0. 0. 0. 0. 0. 0. 0. 0. 0.\n",
      " 0. 0. 0. 0. 0. 0. 0. 0. 0. 0. 0. 0. 0. 0. 0. 0. 0. 0. 0. 0. 0. 0. 0. 0.]\n",
      "ub [1. 1. 1. 1. 1. 1. 1. 1. 1. 1. 1. 1. 1. 1. 1. 1. 1. 1. 1. 1. 1. 1. 1. 1.\n",
      " 1. 1. 1. 1. 1. 1. 1. 1. 1. 1. 1. 1. 1. 1. 1. 1. 1. 1. 1. 1. 1. 1. 1. 1.\n",
      " 1. 1. 1. 1. 1. 1. 1. 1. 1. 1. 1. 1. 1. 1. 1. 1. 1. 1. 1. 1. 1. 1. 1. 1.]\n",
      "\n",
      "==========\n",
      "iteration: 12\n",
      "==========\n",
      "----------------------------------------------------------------------------------------------------\n",
      "node0  is good:False  is leaf:True    val:-1424.9220      uct:inf            sp/n:12/12      parent:----       kids:\n",
      "----------------------------------------------------------------------------------------------------\n",
      "\n",
      "total samples: 13\n",
      "current best f(x): [[1267.00469641]]\n",
      "current best x: [0.16579237 0.84291176 0.10997828 0.51805795 0.24823428 0.80685951\n",
      " 0.53147844 0.35121842 0.49222438 0.49715603 0.09693698 0.53537528\n",
      " 0.01779654 0.90296215 0.17097637 0.10152607 0.32060057 0.16213004\n",
      " 0.33925259 0.79693762 0.34303402 0.24931087 0.54206314 0.82284848\n",
      " 0.56591408 0.50523107 0.55607926 0.43635258 0.0075913  0.49317252\n",
      " 0.13299142 0.0889905  0.80859979 0.68870835 0.09476645 0.86431424\n",
      " 0.09562137 0.21916775 0.91083429 0.05706539 0.63830871 0.09857149\n",
      " 0.6180822  0.1722975  0.39661051 0.53860623 0.71758534 0.35910001\n",
      " 0.7302409  0.63647075 0.30084226 0.2319302  0.70310168 0.1235907\n",
      " 0.4542089  0.19968683 0.03174832 0.56601089 0.46619054 0.63783641\n",
      " 0.23136642 0.90976021 0.83174959 0.36728187 0.0221727  0.37473476\n",
      " 0.25691999 0.5404427  0.21426988 0.25948426 0.97608566 0.66392879]\n",
      "lb [0. 0. 0. 0. 0. 0. 0. 0. 0. 0. 0. 0. 0. 0. 0. 0. 0. 0. 0. 0. 0. 0. 0. 0.\n",
      " 0. 0. 0. 0. 0. 0. 0. 0. 0. 0. 0. 0. 0. 0. 0. 0. 0. 0. 0. 0. 0. 0. 0. 0.\n",
      " 0. 0. 0. 0. 0. 0. 0. 0. 0. 0. 0. 0. 0. 0. 0. 0. 0. 0. 0. 0. 0. 0. 0. 0.]\n",
      "ub [1. 1. 1. 1. 1. 1. 1. 1. 1. 1. 1. 1. 1. 1. 1. 1. 1. 1. 1. 1. 1. 1. 1. 1.\n",
      " 1. 1. 1. 1. 1. 1. 1. 1. 1. 1. 1. 1. 1. 1. 1. 1. 1. 1. 1. 1. 1. 1. 1. 1.\n",
      " 1. 1. 1. 1. 1. 1. 1. 1. 1. 1. 1. 1. 1. 1. 1. 1. 1. 1. 1. 1. 1. 1. 1. 1.]\n",
      "\n",
      "==========\n",
      "iteration: 13\n",
      "==========\n",
      "----------------------------------------------------------------------------------------------------\n",
      "node0  is good:False  is leaf:True    val:-1436.5150      uct:inf            sp/n:13/13      parent:----       kids:\n",
      "----------------------------------------------------------------------------------------------------\n",
      "\n",
      "total samples: 14\n",
      "current best f(x): [[1267.00469641]]\n",
      "current best x: [0.16579237 0.84291176 0.10997828 0.51805795 0.24823428 0.80685951\n",
      " 0.53147844 0.35121842 0.49222438 0.49715603 0.09693698 0.53537528\n",
      " 0.01779654 0.90296215 0.17097637 0.10152607 0.32060057 0.16213004\n",
      " 0.33925259 0.79693762 0.34303402 0.24931087 0.54206314 0.82284848\n",
      " 0.56591408 0.50523107 0.55607926 0.43635258 0.0075913  0.49317252\n",
      " 0.13299142 0.0889905  0.80859979 0.68870835 0.09476645 0.86431424\n",
      " 0.09562137 0.21916775 0.91083429 0.05706539 0.63830871 0.09857149\n",
      " 0.6180822  0.1722975  0.39661051 0.53860623 0.71758534 0.35910001\n",
      " 0.7302409  0.63647075 0.30084226 0.2319302  0.70310168 0.1235907\n",
      " 0.4542089  0.19968683 0.03174832 0.56601089 0.46619054 0.63783641\n",
      " 0.23136642 0.90976021 0.83174959 0.36728187 0.0221727  0.37473476\n",
      " 0.25691999 0.5404427  0.21426988 0.25948426 0.97608566 0.66392879]\n",
      "lb [0. 0. 0. 0. 0. 0. 0. 0. 0. 0. 0. 0. 0. 0. 0. 0. 0. 0. 0. 0. 0. 0. 0. 0.\n",
      " 0. 0. 0. 0. 0. 0. 0. 0. 0. 0. 0. 0. 0. 0. 0. 0. 0. 0. 0. 0. 0. 0. 0. 0.\n",
      " 0. 0. 0. 0. 0. 0. 0. 0. 0. 0. 0. 0. 0. 0. 0. 0. 0. 0. 0. 0. 0. 0. 0. 0.]\n",
      "ub [1. 1. 1. 1. 1. 1. 1. 1. 1. 1. 1. 1. 1. 1. 1. 1. 1. 1. 1. 1. 1. 1. 1. 1.\n",
      " 1. 1. 1. 1. 1. 1. 1. 1. 1. 1. 1. 1. 1. 1. 1. 1. 1. 1. 1. 1. 1. 1. 1. 1.\n",
      " 1. 1. 1. 1. 1. 1. 1. 1. 1. 1. 1. 1. 1. 1. 1. 1. 1. 1. 1. 1. 1. 1. 1. 1.]\n",
      "\n",
      "==========\n",
      "iteration: 14\n",
      "==========\n",
      "----------------------------------------------------------------------------------------------------\n",
      "node0  is good:False  is leaf:True    val:-1425.5120      uct:inf            sp/n:14/14      parent:----       kids:\n",
      "----------------------------------------------------------------------------------------------------\n",
      "\n",
      "total samples: 15\n",
      "current best f(x): [[1267.00469641]]\n",
      "current best x: [0.16579237 0.84291176 0.10997828 0.51805795 0.24823428 0.80685951\n",
      " 0.53147844 0.35121842 0.49222438 0.49715603 0.09693698 0.53537528\n",
      " 0.01779654 0.90296215 0.17097637 0.10152607 0.32060057 0.16213004\n",
      " 0.33925259 0.79693762 0.34303402 0.24931087 0.54206314 0.82284848\n",
      " 0.56591408 0.50523107 0.55607926 0.43635258 0.0075913  0.49317252\n",
      " 0.13299142 0.0889905  0.80859979 0.68870835 0.09476645 0.86431424\n",
      " 0.09562137 0.21916775 0.91083429 0.05706539 0.63830871 0.09857149\n",
      " 0.6180822  0.1722975  0.39661051 0.53860623 0.71758534 0.35910001\n",
      " 0.7302409  0.63647075 0.30084226 0.2319302  0.70310168 0.1235907\n",
      " 0.4542089  0.19968683 0.03174832 0.56601089 0.46619054 0.63783641\n",
      " 0.23136642 0.90976021 0.83174959 0.36728187 0.0221727  0.37473476\n",
      " 0.25691999 0.5404427  0.21426988 0.25948426 0.97608566 0.66392879]\n",
      "lb [0. 0. 0. 0. 0. 0. 0. 0. 0. 0. 0. 0. 0. 0. 0. 0. 0. 0. 0. 0. 0. 0. 0. 0.\n",
      " 0. 0. 0. 0. 0. 0. 0. 0. 0. 0. 0. 0. 0. 0. 0. 0. 0. 0. 0. 0. 0. 0. 0. 0.\n",
      " 0. 0. 0. 0. 0. 0. 0. 0. 0. 0. 0. 0. 0. 0. 0. 0. 0. 0. 0. 0. 0. 0. 0. 0.]\n",
      "ub [1. 1. 1. 1. 1. 1. 1. 1. 1. 1. 1. 1. 1. 1. 1. 1. 1. 1. 1. 1. 1. 1. 1. 1.\n",
      " 1. 1. 1. 1. 1. 1. 1. 1. 1. 1. 1. 1. 1. 1. 1. 1. 1. 1. 1. 1. 1. 1. 1. 1.\n",
      " 1. 1. 1. 1. 1. 1. 1. 1. 1. 1. 1. 1. 1. 1. 1. 1. 1. 1. 1. 1. 1. 1. 1. 1.]\n",
      "\n",
      "==========\n",
      "iteration: 15\n",
      "==========\n",
      "----------------------------------------------------------------------------------------------------\n",
      "node0  is good:False  is leaf:True    val:-1429.9080      uct:inf            sp/n:15/15      parent:----       kids:\n",
      "----------------------------------------------------------------------------------------------------\n",
      "\n",
      "total samples: 16\n",
      "current best f(x): [[1267.00469641]]\n",
      "current best x: [0.16579237 0.84291176 0.10997828 0.51805795 0.24823428 0.80685951\n",
      " 0.53147844 0.35121842 0.49222438 0.49715603 0.09693698 0.53537528\n",
      " 0.01779654 0.90296215 0.17097637 0.10152607 0.32060057 0.16213004\n",
      " 0.33925259 0.79693762 0.34303402 0.24931087 0.54206314 0.82284848\n",
      " 0.56591408 0.50523107 0.55607926 0.43635258 0.0075913  0.49317252\n",
      " 0.13299142 0.0889905  0.80859979 0.68870835 0.09476645 0.86431424\n",
      " 0.09562137 0.21916775 0.91083429 0.05706539 0.63830871 0.09857149\n",
      " 0.6180822  0.1722975  0.39661051 0.53860623 0.71758534 0.35910001\n",
      " 0.7302409  0.63647075 0.30084226 0.2319302  0.70310168 0.1235907\n",
      " 0.4542089  0.19968683 0.03174832 0.56601089 0.46619054 0.63783641\n",
      " 0.23136642 0.90976021 0.83174959 0.36728187 0.0221727  0.37473476\n",
      " 0.25691999 0.5404427  0.21426988 0.25948426 0.97608566 0.66392879]\n",
      "lb [0. 0. 0. 0. 0. 0. 0. 0. 0. 0. 0. 0. 0. 0. 0. 0. 0. 0. 0. 0. 0. 0. 0. 0.\n",
      " 0. 0. 0. 0. 0. 0. 0. 0. 0. 0. 0. 0. 0. 0. 0. 0. 0. 0. 0. 0. 0. 0. 0. 0.\n",
      " 0. 0. 0. 0. 0. 0. 0. 0. 0. 0. 0. 0. 0. 0. 0. 0. 0. 0. 0. 0. 0. 0. 0. 0.]\n",
      "ub [1. 1. 1. 1. 1. 1. 1. 1. 1. 1. 1. 1. 1. 1. 1. 1. 1. 1. 1. 1. 1. 1. 1. 1.\n",
      " 1. 1. 1. 1. 1. 1. 1. 1. 1. 1. 1. 1. 1. 1. 1. 1. 1. 1. 1. 1. 1. 1. 1. 1.\n",
      " 1. 1. 1. 1. 1. 1. 1. 1. 1. 1. 1. 1. 1. 1. 1. 1. 1. 1. 1. 1. 1. 1. 1. 1.]\n",
      "\n",
      "==========\n",
      "iteration: 16\n",
      "==========\n",
      "----------------------------------------------------------------------------------------------------\n",
      "node0  is good:False  is leaf:True    val:-1423.0240      uct:inf            sp/n:16/16      parent:----       kids:\n",
      "----------------------------------------------------------------------------------------------------\n",
      "\n",
      "total samples: 17\n",
      "current best f(x): [[1267.00469641]]\n",
      "current best x: [0.16579237 0.84291176 0.10997828 0.51805795 0.24823428 0.80685951\n",
      " 0.53147844 0.35121842 0.49222438 0.49715603 0.09693698 0.53537528\n",
      " 0.01779654 0.90296215 0.17097637 0.10152607 0.32060057 0.16213004\n",
      " 0.33925259 0.79693762 0.34303402 0.24931087 0.54206314 0.82284848\n",
      " 0.56591408 0.50523107 0.55607926 0.43635258 0.0075913  0.49317252\n",
      " 0.13299142 0.0889905  0.80859979 0.68870835 0.09476645 0.86431424\n",
      " 0.09562137 0.21916775 0.91083429 0.05706539 0.63830871 0.09857149\n",
      " 0.6180822  0.1722975  0.39661051 0.53860623 0.71758534 0.35910001\n",
      " 0.7302409  0.63647075 0.30084226 0.2319302  0.70310168 0.1235907\n",
      " 0.4542089  0.19968683 0.03174832 0.56601089 0.46619054 0.63783641\n",
      " 0.23136642 0.90976021 0.83174959 0.36728187 0.0221727  0.37473476\n",
      " 0.25691999 0.5404427  0.21426988 0.25948426 0.97608566 0.66392879]\n",
      "lb [0. 0. 0. 0. 0. 0. 0. 0. 0. 0. 0. 0. 0. 0. 0. 0. 0. 0. 0. 0. 0. 0. 0. 0.\n",
      " 0. 0. 0. 0. 0. 0. 0. 0. 0. 0. 0. 0. 0. 0. 0. 0. 0. 0. 0. 0. 0. 0. 0. 0.\n",
      " 0. 0. 0. 0. 0. 0. 0. 0. 0. 0. 0. 0. 0. 0. 0. 0. 0. 0. 0. 0. 0. 0. 0. 0.]\n",
      "ub [1. 1. 1. 1. 1. 1. 1. 1. 1. 1. 1. 1. 1. 1. 1. 1. 1. 1. 1. 1. 1. 1. 1. 1.\n",
      " 1. 1. 1. 1. 1. 1. 1. 1. 1. 1. 1. 1. 1. 1. 1. 1. 1. 1. 1. 1. 1. 1. 1. 1.\n",
      " 1. 1. 1. 1. 1. 1. 1. 1. 1. 1. 1. 1. 1. 1. 1. 1. 1. 1. 1. 1. 1. 1. 1. 1.]\n",
      "\n",
      "==========\n",
      "iteration: 17\n",
      "==========\n",
      "----------------------------------------------------------------------------------------------------\n",
      "node0  is good:False  is leaf:True    val:-1427.5129      uct:inf            sp/n:17/17      parent:----       kids:\n",
      "----------------------------------------------------------------------------------------------------\n",
      "\n",
      "total samples: 18\n",
      "current best f(x): [[1267.00469641]]\n",
      "current best x: [0.16579237 0.84291176 0.10997828 0.51805795 0.24823428 0.80685951\n",
      " 0.53147844 0.35121842 0.49222438 0.49715603 0.09693698 0.53537528\n",
      " 0.01779654 0.90296215 0.17097637 0.10152607 0.32060057 0.16213004\n",
      " 0.33925259 0.79693762 0.34303402 0.24931087 0.54206314 0.82284848\n",
      " 0.56591408 0.50523107 0.55607926 0.43635258 0.0075913  0.49317252\n",
      " 0.13299142 0.0889905  0.80859979 0.68870835 0.09476645 0.86431424\n",
      " 0.09562137 0.21916775 0.91083429 0.05706539 0.63830871 0.09857149\n",
      " 0.6180822  0.1722975  0.39661051 0.53860623 0.71758534 0.35910001\n",
      " 0.7302409  0.63647075 0.30084226 0.2319302  0.70310168 0.1235907\n",
      " 0.4542089  0.19968683 0.03174832 0.56601089 0.46619054 0.63783641\n",
      " 0.23136642 0.90976021 0.83174959 0.36728187 0.0221727  0.37473476\n",
      " 0.25691999 0.5404427  0.21426988 0.25948426 0.97608566 0.66392879]\n",
      "lb [0. 0. 0. 0. 0. 0. 0. 0. 0. 0. 0. 0. 0. 0. 0. 0. 0. 0. 0. 0. 0. 0. 0. 0.\n",
      " 0. 0. 0. 0. 0. 0. 0. 0. 0. 0. 0. 0. 0. 0. 0. 0. 0. 0. 0. 0. 0. 0. 0. 0.\n",
      " 0. 0. 0. 0. 0. 0. 0. 0. 0. 0. 0. 0. 0. 0. 0. 0. 0. 0. 0. 0. 0. 0. 0. 0.]\n",
      "ub [1. 1. 1. 1. 1. 1. 1. 1. 1. 1. 1. 1. 1. 1. 1. 1. 1. 1. 1. 1. 1. 1. 1. 1.\n",
      " 1. 1. 1. 1. 1. 1. 1. 1. 1. 1. 1. 1. 1. 1. 1. 1. 1. 1. 1. 1. 1. 1. 1. 1.\n",
      " 1. 1. 1. 1. 1. 1. 1. 1. 1. 1. 1. 1. 1. 1. 1. 1. 1. 1. 1. 1. 1. 1. 1. 1.]\n",
      "\n",
      "==========\n",
      "iteration: 18\n",
      "==========\n",
      "----------------------------------------------------------------------------------------------------\n",
      "node0  is good:False  is leaf:True    val:-1433.3160      uct:inf            sp/n:18/18      parent:----       kids:\n",
      "----------------------------------------------------------------------------------------------------\n",
      "\n",
      "total samples: 19\n",
      "current best f(x): [[1267.00469641]]\n",
      "current best x: [0.16579237 0.84291176 0.10997828 0.51805795 0.24823428 0.80685951\n",
      " 0.53147844 0.35121842 0.49222438 0.49715603 0.09693698 0.53537528\n",
      " 0.01779654 0.90296215 0.17097637 0.10152607 0.32060057 0.16213004\n",
      " 0.33925259 0.79693762 0.34303402 0.24931087 0.54206314 0.82284848\n",
      " 0.56591408 0.50523107 0.55607926 0.43635258 0.0075913  0.49317252\n",
      " 0.13299142 0.0889905  0.80859979 0.68870835 0.09476645 0.86431424\n",
      " 0.09562137 0.21916775 0.91083429 0.05706539 0.63830871 0.09857149\n",
      " 0.6180822  0.1722975  0.39661051 0.53860623 0.71758534 0.35910001\n",
      " 0.7302409  0.63647075 0.30084226 0.2319302  0.70310168 0.1235907\n",
      " 0.4542089  0.19968683 0.03174832 0.56601089 0.46619054 0.63783641\n",
      " 0.23136642 0.90976021 0.83174959 0.36728187 0.0221727  0.37473476\n",
      " 0.25691999 0.5404427  0.21426988 0.25948426 0.97608566 0.66392879]\n",
      "lb [0. 0. 0. 0. 0. 0. 0. 0. 0. 0. 0. 0. 0. 0. 0. 0. 0. 0. 0. 0. 0. 0. 0. 0.\n",
      " 0. 0. 0. 0. 0. 0. 0. 0. 0. 0. 0. 0. 0. 0. 0. 0. 0. 0. 0. 0. 0. 0. 0. 0.\n",
      " 0. 0. 0. 0. 0. 0. 0. 0. 0. 0. 0. 0. 0. 0. 0. 0. 0. 0. 0. 0. 0. 0. 0. 0.]\n",
      "ub [1. 1. 1. 1. 1. 1. 1. 1. 1. 1. 1. 1. 1. 1. 1. 1. 1. 1. 1. 1. 1. 1. 1. 1.\n",
      " 1. 1. 1. 1. 1. 1. 1. 1. 1. 1. 1. 1. 1. 1. 1. 1. 1. 1. 1. 1. 1. 1. 1. 1.\n",
      " 1. 1. 1. 1. 1. 1. 1. 1. 1. 1. 1. 1. 1. 1. 1. 1. 1. 1. 1. 1. 1. 1. 1. 1.]\n",
      "\n",
      "==========\n",
      "iteration: 19\n",
      "==========\n",
      "----------------------------------------------------------------------------------------------------\n",
      "node0  is good:False  is leaf:True    val:-1427.9420      uct:inf            sp/n:19/19      parent:----       kids:\n",
      "----------------------------------------------------------------------------------------------------\n",
      "\n",
      "total samples: 20\n",
      "current best f(x): [[1267.00469641]]\n",
      "current best x: [0.16579237 0.84291176 0.10997828 0.51805795 0.24823428 0.80685951\n",
      " 0.53147844 0.35121842 0.49222438 0.49715603 0.09693698 0.53537528\n",
      " 0.01779654 0.90296215 0.17097637 0.10152607 0.32060057 0.16213004\n",
      " 0.33925259 0.79693762 0.34303402 0.24931087 0.54206314 0.82284848\n",
      " 0.56591408 0.50523107 0.55607926 0.43635258 0.0075913  0.49317252\n",
      " 0.13299142 0.0889905  0.80859979 0.68870835 0.09476645 0.86431424\n",
      " 0.09562137 0.21916775 0.91083429 0.05706539 0.63830871 0.09857149\n",
      " 0.6180822  0.1722975  0.39661051 0.53860623 0.71758534 0.35910001\n",
      " 0.7302409  0.63647075 0.30084226 0.2319302  0.70310168 0.1235907\n",
      " 0.4542089  0.19968683 0.03174832 0.56601089 0.46619054 0.63783641\n",
      " 0.23136642 0.90976021 0.83174959 0.36728187 0.0221727  0.37473476\n",
      " 0.25691999 0.5404427  0.21426988 0.25948426 0.97608566 0.66392879]\n",
      "lb [0. 0. 0. 0. 0. 0. 0. 0. 0. 0. 0. 0. 0. 0. 0. 0. 0. 0. 0. 0. 0. 0. 0. 0.\n",
      " 0. 0. 0. 0. 0. 0. 0. 0. 0. 0. 0. 0. 0. 0. 0. 0. 0. 0. 0. 0. 0. 0. 0. 0.\n",
      " 0. 0. 0. 0. 0. 0. 0. 0. 0. 0. 0. 0. 0. 0. 0. 0. 0. 0. 0. 0. 0. 0. 0. 0.]\n",
      "ub [1. 1. 1. 1. 1. 1. 1. 1. 1. 1. 1. 1. 1. 1. 1. 1. 1. 1. 1. 1. 1. 1. 1. 1.\n",
      " 1. 1. 1. 1. 1. 1. 1. 1. 1. 1. 1. 1. 1. 1. 1. 1. 1. 1. 1. 1. 1. 1. 1. 1.\n",
      " 1. 1. 1. 1. 1. 1. 1. 1. 1. 1. 1. 1. 1. 1. 1. 1. 1. 1. 1. 1. 1. 1. 1. 1.]\n",
      "\n",
      "==========\n",
      "iteration: 20\n",
      "==========\n",
      "----------------------------------------------------------------------------------------------------\n",
      "node0  is good:False  is leaf:True    val:-1429.3810      uct:inf            sp/n:20/20      parent:----       kids:\n",
      "----------------------------------------------------------------------------------------------------\n",
      "\n",
      "total samples: 21\n",
      "current best f(x): [[1267.00469641]]\n",
      "current best x: [0.16579237 0.84291176 0.10997828 0.51805795 0.24823428 0.80685951\n",
      " 0.53147844 0.35121842 0.49222438 0.49715603 0.09693698 0.53537528\n",
      " 0.01779654 0.90296215 0.17097637 0.10152607 0.32060057 0.16213004\n",
      " 0.33925259 0.79693762 0.34303402 0.24931087 0.54206314 0.82284848\n",
      " 0.56591408 0.50523107 0.55607926 0.43635258 0.0075913  0.49317252\n",
      " 0.13299142 0.0889905  0.80859979 0.68870835 0.09476645 0.86431424\n",
      " 0.09562137 0.21916775 0.91083429 0.05706539 0.63830871 0.09857149\n",
      " 0.6180822  0.1722975  0.39661051 0.53860623 0.71758534 0.35910001\n",
      " 0.7302409  0.63647075 0.30084226 0.2319302  0.70310168 0.1235907\n",
      " 0.4542089  0.19968683 0.03174832 0.56601089 0.46619054 0.63783641\n",
      " 0.23136642 0.90976021 0.83174959 0.36728187 0.0221727  0.37473476\n",
      " 0.25691999 0.5404427  0.21426988 0.25948426 0.97608566 0.66392879]\n",
      "lb [0. 0. 0. 0. 0. 0. 0. 0. 0. 0. 0. 0. 0. 0. 0. 0. 0. 0. 0. 0. 0. 0. 0. 0.\n",
      " 0. 0. 0. 0. 0. 0. 0. 0. 0. 0. 0. 0. 0. 0. 0. 0. 0. 0. 0. 0. 0. 0. 0. 0.\n",
      " 0. 0. 0. 0. 0. 0. 0. 0. 0. 0. 0. 0. 0. 0. 0. 0. 0. 0. 0. 0. 0. 0. 0. 0.]\n",
      "ub [1. 1. 1. 1. 1. 1. 1. 1. 1. 1. 1. 1. 1. 1. 1. 1. 1. 1. 1. 1. 1. 1. 1. 1.\n",
      " 1. 1. 1. 1. 1. 1. 1. 1. 1. 1. 1. 1. 1. 1. 1. 1. 1. 1. 1. 1. 1. 1. 1. 1.\n",
      " 1. 1. 1. 1. 1. 1. 1. 1. 1. 1. 1. 1. 1. 1. 1. 1. 1. 1. 1. 1. 1. 1. 1. 1.]\n",
      "\n",
      "==========\n",
      "iteration: 21\n",
      "==========\n",
      "----------------------------------------------------------------------------------------------------\n",
      "node0  is good:False  is leaf:True    val:-1434.1810      uct:inf            sp/n:21/21      parent:----       kids:\n",
      "----------------------------------------------------------------------------------------------------\n",
      "\n",
      "total samples: 22\n",
      "current best f(x): [[1267.00469641]]\n",
      "current best x: [0.16579237 0.84291176 0.10997828 0.51805795 0.24823428 0.80685951\n",
      " 0.53147844 0.35121842 0.49222438 0.49715603 0.09693698 0.53537528\n",
      " 0.01779654 0.90296215 0.17097637 0.10152607 0.32060057 0.16213004\n",
      " 0.33925259 0.79693762 0.34303402 0.24931087 0.54206314 0.82284848\n",
      " 0.56591408 0.50523107 0.55607926 0.43635258 0.0075913  0.49317252\n",
      " 0.13299142 0.0889905  0.80859979 0.68870835 0.09476645 0.86431424\n",
      " 0.09562137 0.21916775 0.91083429 0.05706539 0.63830871 0.09857149\n",
      " 0.6180822  0.1722975  0.39661051 0.53860623 0.71758534 0.35910001\n",
      " 0.7302409  0.63647075 0.30084226 0.2319302  0.70310168 0.1235907\n",
      " 0.4542089  0.19968683 0.03174832 0.56601089 0.46619054 0.63783641\n",
      " 0.23136642 0.90976021 0.83174959 0.36728187 0.0221727  0.37473476\n",
      " 0.25691999 0.5404427  0.21426988 0.25948426 0.97608566 0.66392879]\n",
      "lb [0. 0. 0. 0. 0. 0. 0. 0. 0. 0. 0. 0. 0. 0. 0. 0. 0. 0. 0. 0. 0. 0. 0. 0.\n",
      " 0. 0. 0. 0. 0. 0. 0. 0. 0. 0. 0. 0. 0. 0. 0. 0. 0. 0. 0. 0. 0. 0. 0. 0.\n",
      " 0. 0. 0. 0. 0. 0. 0. 0. 0. 0. 0. 0. 0. 0. 0. 0. 0. 0. 0. 0. 0. 0. 0. 0.]\n",
      "ub [1. 1. 1. 1. 1. 1. 1. 1. 1. 1. 1. 1. 1. 1. 1. 1. 1. 1. 1. 1. 1. 1. 1. 1.\n",
      " 1. 1. 1. 1. 1. 1. 1. 1. 1. 1. 1. 1. 1. 1. 1. 1. 1. 1. 1. 1. 1. 1. 1. 1.\n",
      " 1. 1. 1. 1. 1. 1. 1. 1. 1. 1. 1. 1. 1. 1. 1. 1. 1. 1. 1. 1. 1. 1. 1. 1.]\n",
      "\n",
      "==========\n",
      "iteration: 22\n",
      "==========\n",
      "----------------------------------------------------------------------------------------------------\n",
      "node0  is good:False  is leaf:True    val:-1437.1090      uct:inf            sp/n:22/22      parent:----       kids:\n",
      "----------------------------------------------------------------------------------------------------\n",
      "\n",
      "total samples: 23\n",
      "current best f(x): [[1267.00469641]]\n",
      "current best x: [0.16579237 0.84291176 0.10997828 0.51805795 0.24823428 0.80685951\n",
      " 0.53147844 0.35121842 0.49222438 0.49715603 0.09693698 0.53537528\n",
      " 0.01779654 0.90296215 0.17097637 0.10152607 0.32060057 0.16213004\n",
      " 0.33925259 0.79693762 0.34303402 0.24931087 0.54206314 0.82284848\n",
      " 0.56591408 0.50523107 0.55607926 0.43635258 0.0075913  0.49317252\n",
      " 0.13299142 0.0889905  0.80859979 0.68870835 0.09476645 0.86431424\n",
      " 0.09562137 0.21916775 0.91083429 0.05706539 0.63830871 0.09857149\n",
      " 0.6180822  0.1722975  0.39661051 0.53860623 0.71758534 0.35910001\n",
      " 0.7302409  0.63647075 0.30084226 0.2319302  0.70310168 0.1235907\n",
      " 0.4542089  0.19968683 0.03174832 0.56601089 0.46619054 0.63783641\n",
      " 0.23136642 0.90976021 0.83174959 0.36728187 0.0221727  0.37473476\n",
      " 0.25691999 0.5404427  0.21426988 0.25948426 0.97608566 0.66392879]\n",
      "lb [0. 0. 0. 0. 0. 0. 0. 0. 0. 0. 0. 0. 0. 0. 0. 0. 0. 0. 0. 0. 0. 0. 0. 0.\n",
      " 0. 0. 0. 0. 0. 0. 0. 0. 0. 0. 0. 0. 0. 0. 0. 0. 0. 0. 0. 0. 0. 0. 0. 0.\n",
      " 0. 0. 0. 0. 0. 0. 0. 0. 0. 0. 0. 0. 0. 0. 0. 0. 0. 0. 0. 0. 0. 0. 0. 0.]\n",
      "ub [1. 1. 1. 1. 1. 1. 1. 1. 1. 1. 1. 1. 1. 1. 1. 1. 1. 1. 1. 1. 1. 1. 1. 1.\n",
      " 1. 1. 1. 1. 1. 1. 1. 1. 1. 1. 1. 1. 1. 1. 1. 1. 1. 1. 1. 1. 1. 1. 1. 1.\n",
      " 1. 1. 1. 1. 1. 1. 1. 1. 1. 1. 1. 1. 1. 1. 1. 1. 1. 1. 1. 1. 1. 1. 1. 1.]\n",
      "\n",
      "==========\n",
      "iteration: 23\n",
      "==========\n",
      "----------------------------------------------------------------------------------------------------\n",
      "node0  is good:False  is leaf:True    val:-1439.7150      uct:inf            sp/n:23/23      parent:----       kids:\n",
      "----------------------------------------------------------------------------------------------------\n",
      "\n",
      "total samples: 24\n",
      "current best f(x): [[1267.00469641]]\n",
      "current best x: [0.16579237 0.84291176 0.10997828 0.51805795 0.24823428 0.80685951\n",
      " 0.53147844 0.35121842 0.49222438 0.49715603 0.09693698 0.53537528\n",
      " 0.01779654 0.90296215 0.17097637 0.10152607 0.32060057 0.16213004\n",
      " 0.33925259 0.79693762 0.34303402 0.24931087 0.54206314 0.82284848\n",
      " 0.56591408 0.50523107 0.55607926 0.43635258 0.0075913  0.49317252\n",
      " 0.13299142 0.0889905  0.80859979 0.68870835 0.09476645 0.86431424\n",
      " 0.09562137 0.21916775 0.91083429 0.05706539 0.63830871 0.09857149\n",
      " 0.6180822  0.1722975  0.39661051 0.53860623 0.71758534 0.35910001\n",
      " 0.7302409  0.63647075 0.30084226 0.2319302  0.70310168 0.1235907\n",
      " 0.4542089  0.19968683 0.03174832 0.56601089 0.46619054 0.63783641\n",
      " 0.23136642 0.90976021 0.83174959 0.36728187 0.0221727  0.37473476\n",
      " 0.25691999 0.5404427  0.21426988 0.25948426 0.97608566 0.66392879]\n",
      "lb [0. 0. 0. 0. 0. 0. 0. 0. 0. 0. 0. 0. 0. 0. 0. 0. 0. 0. 0. 0. 0. 0. 0. 0.\n",
      " 0. 0. 0. 0. 0. 0. 0. 0. 0. 0. 0. 0. 0. 0. 0. 0. 0. 0. 0. 0. 0. 0. 0. 0.\n",
      " 0. 0. 0. 0. 0. 0. 0. 0. 0. 0. 0. 0. 0. 0. 0. 0. 0. 0. 0. 0. 0. 0. 0. 0.]\n",
      "ub [1. 1. 1. 1. 1. 1. 1. 1. 1. 1. 1. 1. 1. 1. 1. 1. 1. 1. 1. 1. 1. 1. 1. 1.\n",
      " 1. 1. 1. 1. 1. 1. 1. 1. 1. 1. 1. 1. 1. 1. 1. 1. 1. 1. 1. 1. 1. 1. 1. 1.\n",
      " 1. 1. 1. 1. 1. 1. 1. 1. 1. 1. 1. 1. 1. 1. 1. 1. 1. 1. 1. 1. 1. 1. 1. 1.]\n",
      "\n",
      "==========\n",
      "iteration: 24\n",
      "==========\n",
      "----------------------------------------------------------------------------------------------------\n",
      "node0  is good:False  is leaf:True    val:-1442.8580      uct:inf            sp/n:24/24      parent:----       kids:\n",
      "----------------------------------------------------------------------------------------------------\n",
      "\n",
      "total samples: 25\n",
      "current best f(x): [[1267.00469641]]\n",
      "current best x: [0.16579237 0.84291176 0.10997828 0.51805795 0.24823428 0.80685951\n",
      " 0.53147844 0.35121842 0.49222438 0.49715603 0.09693698 0.53537528\n",
      " 0.01779654 0.90296215 0.17097637 0.10152607 0.32060057 0.16213004\n",
      " 0.33925259 0.79693762 0.34303402 0.24931087 0.54206314 0.82284848\n",
      " 0.56591408 0.50523107 0.55607926 0.43635258 0.0075913  0.49317252\n",
      " 0.13299142 0.0889905  0.80859979 0.68870835 0.09476645 0.86431424\n",
      " 0.09562137 0.21916775 0.91083429 0.05706539 0.63830871 0.09857149\n",
      " 0.6180822  0.1722975  0.39661051 0.53860623 0.71758534 0.35910001\n",
      " 0.7302409  0.63647075 0.30084226 0.2319302  0.70310168 0.1235907\n",
      " 0.4542089  0.19968683 0.03174832 0.56601089 0.46619054 0.63783641\n",
      " 0.23136642 0.90976021 0.83174959 0.36728187 0.0221727  0.37473476\n",
      " 0.25691999 0.5404427  0.21426988 0.25948426 0.97608566 0.66392879]\n",
      "lb [0. 0. 0. 0. 0. 0. 0. 0. 0. 0. 0. 0. 0. 0. 0. 0. 0. 0. 0. 0. 0. 0. 0. 0.\n",
      " 0. 0. 0. 0. 0. 0. 0. 0. 0. 0. 0. 0. 0. 0. 0. 0. 0. 0. 0. 0. 0. 0. 0. 0.\n",
      " 0. 0. 0. 0. 0. 0. 0. 0. 0. 0. 0. 0. 0. 0. 0. 0. 0. 0. 0. 0. 0. 0. 0. 0.]\n",
      "ub [1. 1. 1. 1. 1. 1. 1. 1. 1. 1. 1. 1. 1. 1. 1. 1. 1. 1. 1. 1. 1. 1. 1. 1.\n",
      " 1. 1. 1. 1. 1. 1. 1. 1. 1. 1. 1. 1. 1. 1. 1. 1. 1. 1. 1. 1. 1. 1. 1. 1.\n",
      " 1. 1. 1. 1. 1. 1. 1. 1. 1. 1. 1. 1. 1. 1. 1. 1. 1. 1. 1. 1. 1. 1. 1. 1.]\n",
      "\n",
      "==========\n",
      "iteration: 25\n",
      "==========\n",
      "----------------------------------------------------------------------------------------------------\n",
      "node0  is good:False  is leaf:True    val:-1447.6460      uct:inf            sp/n:25/25      parent:----       kids:\n",
      "----------------------------------------------------------------------------------------------------\n",
      "\n",
      "total samples: 26\n",
      "current best f(x): [[1267.00469641]]\n",
      "current best x: [0.16579237 0.84291176 0.10997828 0.51805795 0.24823428 0.80685951\n",
      " 0.53147844 0.35121842 0.49222438 0.49715603 0.09693698 0.53537528\n",
      " 0.01779654 0.90296215 0.17097637 0.10152607 0.32060057 0.16213004\n",
      " 0.33925259 0.79693762 0.34303402 0.24931087 0.54206314 0.82284848\n",
      " 0.56591408 0.50523107 0.55607926 0.43635258 0.0075913  0.49317252\n",
      " 0.13299142 0.0889905  0.80859979 0.68870835 0.09476645 0.86431424\n",
      " 0.09562137 0.21916775 0.91083429 0.05706539 0.63830871 0.09857149\n",
      " 0.6180822  0.1722975  0.39661051 0.53860623 0.71758534 0.35910001\n",
      " 0.7302409  0.63647075 0.30084226 0.2319302  0.70310168 0.1235907\n",
      " 0.4542089  0.19968683 0.03174832 0.56601089 0.46619054 0.63783641\n",
      " 0.23136642 0.90976021 0.83174959 0.36728187 0.0221727  0.37473476\n",
      " 0.25691999 0.5404427  0.21426988 0.25948426 0.97608566 0.66392879]\n",
      "lb [0. 0. 0. 0. 0. 0. 0. 0. 0. 0. 0. 0. 0. 0. 0. 0. 0. 0. 0. 0. 0. 0. 0. 0.\n",
      " 0. 0. 0. 0. 0. 0. 0. 0. 0. 0. 0. 0. 0. 0. 0. 0. 0. 0. 0. 0. 0. 0. 0. 0.\n",
      " 0. 0. 0. 0. 0. 0. 0. 0. 0. 0. 0. 0. 0. 0. 0. 0. 0. 0. 0. 0. 0. 0. 0. 0.]\n",
      "ub [1. 1. 1. 1. 1. 1. 1. 1. 1. 1. 1. 1. 1. 1. 1. 1. 1. 1. 1. 1. 1. 1. 1. 1.\n",
      " 1. 1. 1. 1. 1. 1. 1. 1. 1. 1. 1. 1. 1. 1. 1. 1. 1. 1. 1. 1. 1. 1. 1. 1.\n",
      " 1. 1. 1. 1. 1. 1. 1. 1. 1. 1. 1. 1. 1. 1. 1. 1. 1. 1. 1. 1. 1. 1. 1. 1.]\n",
      "\n",
      "==========\n",
      "iteration: 26\n",
      "==========\n",
      "----------------------------------------------------------------------------------------------------\n",
      "node0  is good:False  is leaf:False   val:-1453.1250      uct:inf            sp/n:26/26      parent:----       kids:node1     node2     \n",
      "node1  is good:True   is leaf:True    val:-1321.4360      uct:-1297.2950     sp/n:7/7        parent:node0      kids:\n",
      "node2  is good:False  is leaf:True    val:-1501.6429      uct:-1486.9900     sp/n:19/19      parent:node0      kids:\n",
      "----------------------------------------------------------------------------------------------------\n",
      "=> node1 \n",
      "total samples: 27\n",
      "current best f(x): [[1225.10836443]]\n",
      "current best x: [0.71652995 0.57484338 0.93616748 0.02831646 0.50509383 0.50647936\n",
      " 0.76548469 0.87805709 0.74774066 0.00955163 0.07151322 0.18225627\n",
      " 0.42023647 0.91854398 0.34991903 0.26570185 0.26266937 0.18242203\n",
      " 0.2509769  0.23520901 0.81473828 0.58341008 0.37645368 0.42147846\n",
      " 0.37109045 0.20779246 0.11829389 0.02087125 0.19558605 0.28452851\n",
      " 0.90163733 0.59059193 0.19007713 0.94728865 0.55892099 0.45078949\n",
      " 0.45420922 0.02652701 0.56318632 0.49568758 0.43709685 0.05237103\n",
      " 0.7368956  0.72364878 0.80389205 0.58531139 0.3198846  0.05867506\n",
      " 0.80084496 0.08568316 0.83861251 0.1720053  0.12298093 0.00944553\n",
      " 0.78224893 0.60616433 0.74481094 0.04178541 0.13667893 0.30399002\n",
      " 0.10132009 0.7757446  0.26374048 0.71221858 0.6709128  0.11133288\n",
      " 0.14446045 0.07988408 0.10397467 0.15863128 0.26604376 0.52226525]\n",
      "lb [0. 0. 0. 0. 0. 0. 0. 0. 0. 0. 0. 0. 0. 0. 0. 0. 0. 0. 0. 0. 0. 0. 0. 0.\n",
      " 0. 0. 0. 0. 0. 0. 0. 0. 0. 0. 0. 0. 0. 0. 0. 0. 0. 0. 0. 0. 0. 0. 0. 0.\n",
      " 0. 0. 0. 0. 0. 0. 0. 0. 0. 0. 0. 0. 0. 0. 0. 0. 0. 0. 0. 0. 0. 0. 0. 0.]\n",
      "ub [1. 1. 1. 1. 1. 1. 1. 1. 1. 1. 1. 1. 1. 1. 1. 1. 1. 1. 1. 1. 1. 1. 1. 1.\n",
      " 1. 1. 1. 1. 1. 1. 1. 1. 1. 1. 1. 1. 1. 1. 1. 1. 1. 1. 1. 1. 1. 1. 1. 1.\n",
      " 1. 1. 1. 1. 1. 1. 1. 1. 1. 1. 1. 1. 1. 1. 1. 1. 1. 1. 1. 1. 1. 1. 1. 1.]\n",
      "\n",
      "==========\n",
      "iteration: 27\n",
      "==========\n",
      "----------------------------------------------------------------------------------------------------\n",
      "node0  is good:False  is leaf:False   val:-1444.6801      uct:inf            sp/n:27/27      parent:----       kids:node1     node2     \n",
      "node1  is good:True   is leaf:True    val:-1309.3950      uct:-1286.6000     sp/n:8/8        parent:node0      kids:\n",
      "node2  is good:False  is leaf:True    val:-1501.6429      uct:-1486.8520     sp/n:19/19      parent:node0      kids:\n",
      "----------------------------------------------------------------------------------------------------\n",
      "=> node1 \n",
      "total samples: 28\n",
      "current best f(x): [[1195.16851283]]\n",
      "current best x: [0.48054201 0.88841398 0.54567681 0.23820446 0.31555464 0.55643638\n",
      " 0.99443711 0.85243908 0.88848131 0.06918409 0.04625419 0.43174202\n",
      " 0.54861754 0.71354559 0.05972145 0.03618764 0.42384788 0.41296106\n",
      " 0.07688418 0.14786623 0.85333045 0.20690968 0.61048966 0.41100761\n",
      " 0.36913637 0.26086507 0.00488617 0.20887156 0.42282337 0.63358285\n",
      " 0.61090725 0.22088043 0.10457949 0.92347538 0.20138277 0.103452\n",
      " 0.06574826 0.31477774 0.82237781 0.52198064 0.18305369 0.20752336\n",
      " 0.88186562 0.35323748 0.68635401 0.93414717 0.02622165 0.11535165\n",
      " 0.41244717 0.40891783 0.59565351 0.38659647 0.15300559 0.35629302\n",
      " 0.60743349 0.5034975  0.89102783 0.42000203 0.25510963 0.52335857\n",
      " 0.00491583 0.53326273 0.21801439 0.75422641 0.41294731 0.32385945\n",
      " 0.14040871 0.15197529 0.10855993 0.46822898 0.14412708 0.70786352]\n",
      "lb [0. 0. 0. 0. 0. 0. 0. 0. 0. 0. 0. 0. 0. 0. 0. 0. 0. 0. 0. 0. 0. 0. 0. 0.\n",
      " 0. 0. 0. 0. 0. 0. 0. 0. 0. 0. 0. 0. 0. 0. 0. 0. 0. 0. 0. 0. 0. 0. 0. 0.\n",
      " 0. 0. 0. 0. 0. 0. 0. 0. 0. 0. 0. 0. 0. 0. 0. 0. 0. 0. 0. 0. 0. 0. 0. 0.]\n",
      "ub [1. 1. 1. 1. 1. 1. 1. 1. 1. 1. 1. 1. 1. 1. 1. 1. 1. 1. 1. 1. 1. 1. 1. 1.\n",
      " 1. 1. 1. 1. 1. 1. 1. 1. 1. 1. 1. 1. 1. 1. 1. 1. 1. 1. 1. 1. 1. 1. 1. 1.\n",
      " 1. 1. 1. 1. 1. 1. 1. 1. 1. 1. 1. 1. 1. 1. 1. 1. 1. 1. 1. 1. 1. 1. 1. 1.]\n",
      "\n",
      "==========\n",
      "iteration: 28\n",
      "==========\n",
      "----------------------------------------------------------------------------------------------------\n",
      "node0  is good:False  is leaf:False   val:-1435.7690      uct:inf            sp/n:28/28      parent:----       kids:node1     node2     \n",
      "node1  is good:True   is leaf:True    val:-1296.7030      uct:-1275.0150     sp/n:9/9        parent:node0      kids:\n",
      "node2  is good:False  is leaf:True    val:-1501.6429      uct:-1486.7160     sp/n:19/19      parent:node0      kids:\n",
      "----------------------------------------------------------------------------------------------------\n",
      "=> node1 \n",
      "total samples: 29\n",
      "current best f(x): [[1195.16851283]]\n",
      "current best x: [0.48054201 0.88841398 0.54567681 0.23820446 0.31555464 0.55643638\n",
      " 0.99443711 0.85243908 0.88848131 0.06918409 0.04625419 0.43174202\n",
      " 0.54861754 0.71354559 0.05972145 0.03618764 0.42384788 0.41296106\n",
      " 0.07688418 0.14786623 0.85333045 0.20690968 0.61048966 0.41100761\n",
      " 0.36913637 0.26086507 0.00488617 0.20887156 0.42282337 0.63358285\n",
      " 0.61090725 0.22088043 0.10457949 0.92347538 0.20138277 0.103452\n",
      " 0.06574826 0.31477774 0.82237781 0.52198064 0.18305369 0.20752336\n",
      " 0.88186562 0.35323748 0.68635401 0.93414717 0.02622165 0.11535165\n",
      " 0.41244717 0.40891783 0.59565351 0.38659647 0.15300559 0.35629302\n",
      " 0.60743349 0.5034975  0.89102783 0.42000203 0.25510963 0.52335857\n",
      " 0.00491583 0.53326273 0.21801439 0.75422641 0.41294731 0.32385945\n",
      " 0.14040871 0.15197529 0.10855993 0.46822898 0.14412708 0.70786352]\n",
      "lb [0. 0. 0. 0. 0. 0. 0. 0. 0. 0. 0. 0. 0. 0. 0. 0. 0. 0. 0. 0. 0. 0. 0. 0.\n",
      " 0. 0. 0. 0. 0. 0. 0. 0. 0. 0. 0. 0. 0. 0. 0. 0. 0. 0. 0. 0. 0. 0. 0. 0.\n",
      " 0. 0. 0. 0. 0. 0. 0. 0. 0. 0. 0. 0. 0. 0. 0. 0. 0. 0. 0. 0. 0. 0. 0. 0.]\n",
      "ub [1. 1. 1. 1. 1. 1. 1. 1. 1. 1. 1. 1. 1. 1. 1. 1. 1. 1. 1. 1. 1. 1. 1. 1.\n",
      " 1. 1. 1. 1. 1. 1. 1. 1. 1. 1. 1. 1. 1. 1. 1. 1. 1. 1. 1. 1. 1. 1. 1. 1.\n",
      " 1. 1. 1. 1. 1. 1. 1. 1. 1. 1. 1. 1. 1. 1. 1. 1. 1. 1. 1. 1. 1. 1. 1. 1.]\n",
      "\n",
      "==========\n",
      "iteration: 29\n",
      "==========\n",
      "----------------------------------------------------------------------------------------------------\n",
      "node0  is good:False  is leaf:False   val:-1434.5699      uct:inf            sp/n:29/29      parent:----       kids:node1     node2     \n",
      "node1  is good:True   is leaf:True    val:-1296.7030      uct:-1274.8240     sp/n:9/9        parent:node0      kids:\n",
      "node2  is good:False  is leaf:True    val:-1496.6110      uct:-1481.9340     sp/n:20/20      parent:node0      kids:\n",
      "----------------------------------------------------------------------------------------------------\n",
      "=> node1 \n",
      "total samples: 30\n",
      "current best f(x): [[1195.16851283]]\n",
      "current best x: [0.48054201 0.88841398 0.54567681 0.23820446 0.31555464 0.55643638\n",
      " 0.99443711 0.85243908 0.88848131 0.06918409 0.04625419 0.43174202\n",
      " 0.54861754 0.71354559 0.05972145 0.03618764 0.42384788 0.41296106\n",
      " 0.07688418 0.14786623 0.85333045 0.20690968 0.61048966 0.41100761\n",
      " 0.36913637 0.26086507 0.00488617 0.20887156 0.42282337 0.63358285\n",
      " 0.61090725 0.22088043 0.10457949 0.92347538 0.20138277 0.103452\n",
      " 0.06574826 0.31477774 0.82237781 0.52198064 0.18305369 0.20752336\n",
      " 0.88186562 0.35323748 0.68635401 0.93414717 0.02622165 0.11535165\n",
      " 0.41244717 0.40891783 0.59565351 0.38659647 0.15300559 0.35629302\n",
      " 0.60743349 0.5034975  0.89102783 0.42000203 0.25510963 0.52335857\n",
      " 0.00491583 0.53326273 0.21801439 0.75422641 0.41294731 0.32385945\n",
      " 0.14040871 0.15197529 0.10855993 0.46822898 0.14412708 0.70786352]\n",
      "lb [0. 0. 0. 0. 0. 0. 0. 0. 0. 0. 0. 0. 0. 0. 0. 0. 0. 0. 0. 0. 0. 0. 0. 0.\n",
      " 0. 0. 0. 0. 0. 0. 0. 0. 0. 0. 0. 0. 0. 0. 0. 0. 0. 0. 0. 0. 0. 0. 0. 0.\n",
      " 0. 0. 0. 0. 0. 0. 0. 0. 0. 0. 0. 0. 0. 0. 0. 0. 0. 0. 0. 0. 0. 0. 0. 0.]\n",
      "ub [1. 1. 1. 1. 1. 1. 1. 1. 1. 1. 1. 1. 1. 1. 1. 1. 1. 1. 1. 1. 1. 1. 1. 1.\n",
      " 1. 1. 1. 1. 1. 1. 1. 1. 1. 1. 1. 1. 1. 1. 1. 1. 1. 1. 1. 1. 1. 1. 1. 1.\n",
      " 1. 1. 1. 1. 1. 1. 1. 1. 1. 1. 1. 1. 1. 1. 1. 1. 1. 1. 1. 1. 1. 1. 1. 1.]\n",
      "\n",
      "==========\n",
      "iteration: 30\n",
      "==========\n",
      "----------------------------------------------------------------------------------------------------\n",
      "node0  is good:False  is leaf:False   val:-1427.3300      uct:inf            sp/n:30/30      parent:----       kids:node1     node2     \n",
      "node1  is good:True   is leaf:True    val:-1288.7710      uct:-1267.8380     sp/n:10/10      parent:node0      kids:\n",
      "node2  is good:False  is leaf:True    val:-1496.6110      uct:-1481.8090     sp/n:20/20      parent:node0      kids:\n",
      "----------------------------------------------------------------------------------------------------\n",
      "=> node1 \n",
      "total samples: 31\n",
      "current best f(x): [[1195.16851283]]\n",
      "current best x: [0.48054201 0.88841398 0.54567681 0.23820446 0.31555464 0.55643638\n",
      " 0.99443711 0.85243908 0.88848131 0.06918409 0.04625419 0.43174202\n",
      " 0.54861754 0.71354559 0.05972145 0.03618764 0.42384788 0.41296106\n",
      " 0.07688418 0.14786623 0.85333045 0.20690968 0.61048966 0.41100761\n",
      " 0.36913637 0.26086507 0.00488617 0.20887156 0.42282337 0.63358285\n",
      " 0.61090725 0.22088043 0.10457949 0.92347538 0.20138277 0.103452\n",
      " 0.06574826 0.31477774 0.82237781 0.52198064 0.18305369 0.20752336\n",
      " 0.88186562 0.35323748 0.68635401 0.93414717 0.02622165 0.11535165\n",
      " 0.41244717 0.40891783 0.59565351 0.38659647 0.15300559 0.35629302\n",
      " 0.60743349 0.5034975  0.89102783 0.42000203 0.25510963 0.52335857\n",
      " 0.00491583 0.53326273 0.21801439 0.75422641 0.41294731 0.32385945\n",
      " 0.14040871 0.15197529 0.10855993 0.46822898 0.14412708 0.70786352]\n",
      "lb [0. 0. 0. 0. 0. 0. 0. 0. 0. 0. 0. 0. 0. 0. 0. 0. 0. 0. 0. 0. 0. 0. 0. 0.\n",
      " 0. 0. 0. 0. 0. 0. 0. 0. 0. 0. 0. 0. 0. 0. 0. 0. 0. 0. 0. 0. 0. 0. 0. 0.\n",
      " 0. 0. 0. 0. 0. 0. 0. 0. 0. 0. 0. 0. 0. 0. 0. 0. 0. 0. 0. 0. 0. 0. 0. 0.]\n",
      "ub [1. 1. 1. 1. 1. 1. 1. 1. 1. 1. 1. 1. 1. 1. 1. 1. 1. 1. 1. 1. 1. 1. 1. 1.\n",
      " 1. 1. 1. 1. 1. 1. 1. 1. 1. 1. 1. 1. 1. 1. 1. 1. 1. 1. 1. 1. 1. 1. 1. 1.\n",
      " 1. 1. 1. 1. 1. 1. 1. 1. 1. 1. 1. 1. 1. 1. 1. 1. 1. 1. 1. 1. 1. 1. 1. 1.]\n",
      "\n",
      "==========\n",
      "iteration: 31\n",
      "==========\n",
      "----------------------------------------------------------------------------------------------------\n",
      "node0  is good:False  is leaf:False   val:-1423.0410      uct:inf            sp/n:31/31      parent:----       kids:node1     node2     \n",
      "node1  is good:True   is leaf:True    val:-1289.2791      uct:-1269.1560     sp/n:11/11      parent:node0      kids:\n",
      "node2  is good:False  is leaf:True    val:-1496.6110      uct:-1481.6870     sp/n:20/20      parent:node0      kids:\n",
      "----------------------------------------------------------------------------------------------------\n",
      "=> node1 \n",
      "total samples: 32\n",
      "current best f(x): [[1195.16851283]]\n",
      "current best x: [0.48054201 0.88841398 0.54567681 0.23820446 0.31555464 0.55643638\n",
      " 0.99443711 0.85243908 0.88848131 0.06918409 0.04625419 0.43174202\n",
      " 0.54861754 0.71354559 0.05972145 0.03618764 0.42384788 0.41296106\n",
      " 0.07688418 0.14786623 0.85333045 0.20690968 0.61048966 0.41100761\n",
      " 0.36913637 0.26086507 0.00488617 0.20887156 0.42282337 0.63358285\n",
      " 0.61090725 0.22088043 0.10457949 0.92347538 0.20138277 0.103452\n",
      " 0.06574826 0.31477774 0.82237781 0.52198064 0.18305369 0.20752336\n",
      " 0.88186562 0.35323748 0.68635401 0.93414717 0.02622165 0.11535165\n",
      " 0.41244717 0.40891783 0.59565351 0.38659647 0.15300559 0.35629302\n",
      " 0.60743349 0.5034975  0.89102783 0.42000203 0.25510963 0.52335857\n",
      " 0.00491583 0.53326273 0.21801439 0.75422641 0.41294731 0.32385945\n",
      " 0.14040871 0.15197529 0.10855993 0.46822898 0.14412708 0.70786352]\n",
      "lb [0. 0. 0. 0. 0. 0. 0. 0. 0. 0. 0. 0. 0. 0. 0. 0. 0. 0. 0. 0. 0. 0. 0. 0.\n",
      " 0. 0. 0. 0. 0. 0. 0. 0. 0. 0. 0. 0. 0. 0. 0. 0. 0. 0. 0. 0. 0. 0. 0. 0.\n",
      " 0. 0. 0. 0. 0. 0. 0. 0. 0. 0. 0. 0. 0. 0. 0. 0. 0. 0. 0. 0. 0. 0. 0. 0.]\n",
      "ub [1. 1. 1. 1. 1. 1. 1. 1. 1. 1. 1. 1. 1. 1. 1. 1. 1. 1. 1. 1. 1. 1. 1. 1.\n",
      " 1. 1. 1. 1. 1. 1. 1. 1. 1. 1. 1. 1. 1. 1. 1. 1. 1. 1. 1. 1. 1. 1. 1. 1.\n",
      " 1. 1. 1. 1. 1. 1. 1. 1. 1. 1. 1. 1. 1. 1. 1. 1. 1. 1. 1. 1. 1. 1. 1. 1.]\n",
      "\n",
      "==========\n",
      "iteration: 32\n",
      "==========\n",
      "----------------------------------------------------------------------------------------------------\n",
      "node0  is good:False  is leaf:False   val:-1420.1110      uct:inf            sp/n:32/32      parent:----       kids:node1     node2     \n",
      "node1  is good:True   is leaf:True    val:-1292.6121      uct:-1273.1920     sp/n:12/12      parent:node0      kids:\n",
      "node2  is good:False  is leaf:True    val:-1496.6110      uct:-1481.5680     sp/n:20/20      parent:node0      kids:\n",
      "----------------------------------------------------------------------------------------------------\n",
      "=> node1 \n",
      "total samples: 33\n",
      "current best f(x): [[1195.16851283]]\n",
      "current best x: [0.48054201 0.88841398 0.54567681 0.23820446 0.31555464 0.55643638\n",
      " 0.99443711 0.85243908 0.88848131 0.06918409 0.04625419 0.43174202\n",
      " 0.54861754 0.71354559 0.05972145 0.03618764 0.42384788 0.41296106\n",
      " 0.07688418 0.14786623 0.85333045 0.20690968 0.61048966 0.41100761\n",
      " 0.36913637 0.26086507 0.00488617 0.20887156 0.42282337 0.63358285\n",
      " 0.61090725 0.22088043 0.10457949 0.92347538 0.20138277 0.103452\n",
      " 0.06574826 0.31477774 0.82237781 0.52198064 0.18305369 0.20752336\n",
      " 0.88186562 0.35323748 0.68635401 0.93414717 0.02622165 0.11535165\n",
      " 0.41244717 0.40891783 0.59565351 0.38659647 0.15300559 0.35629302\n",
      " 0.60743349 0.5034975  0.89102783 0.42000203 0.25510963 0.52335857\n",
      " 0.00491583 0.53326273 0.21801439 0.75422641 0.41294731 0.32385945\n",
      " 0.14040871 0.15197529 0.10855993 0.46822898 0.14412708 0.70786352]\n",
      "lb [0. 0. 0. 0. 0. 0. 0. 0. 0. 0. 0. 0. 0. 0. 0. 0. 0. 0. 0. 0. 0. 0. 0. 0.\n",
      " 0. 0. 0. 0. 0. 0. 0. 0. 0. 0. 0. 0. 0. 0. 0. 0. 0. 0. 0. 0. 0. 0. 0. 0.\n",
      " 0. 0. 0. 0. 0. 0. 0. 0. 0. 0. 0. 0. 0. 0. 0. 0. 0. 0. 0. 0. 0. 0. 0. 0.]\n",
      "ub [1. 1. 1. 1. 1. 1. 1. 1. 1. 1. 1. 1. 1. 1. 1. 1. 1. 1. 1. 1. 1. 1. 1. 1.\n",
      " 1. 1. 1. 1. 1. 1. 1. 1. 1. 1. 1. 1. 1. 1. 1. 1. 1. 1. 1. 1. 1. 1. 1. 1.\n",
      " 1. 1. 1. 1. 1. 1. 1. 1. 1. 1. 1. 1. 1. 1. 1. 1. 1. 1. 1. 1. 1. 1. 1. 1.]\n",
      "\n",
      "==========\n",
      "iteration: 33\n",
      "==========\n",
      "----------------------------------------------------------------------------------------------------\n",
      "node0  is good:False  is leaf:False   val:-1416.0760      uct:inf            sp/n:33/33      parent:----       kids:node1     node2     \n",
      "node1  is good:True   is leaf:True    val:-1292.1760      uct:-1273.3740     sp/n:13/13      parent:node0      kids:\n",
      "node2  is good:False  is leaf:True    val:-1496.6110      uct:-1481.4520     sp/n:20/20      parent:node0      kids:\n",
      "----------------------------------------------------------------------------------------------------\n",
      "=> node1 \n",
      "total samples: 34\n",
      "current best f(x): [[1108.61370541]]\n",
      "current best x: [0.5090061  0.84110719 0.75332577 0.29798003 0.2663069  0.41526914\n",
      " 0.63193804 0.60623533 0.86021172 0.42647318 0.07756184 0.05623836\n",
      " 0.14838897 0.83029406 0.05041727 0.14350259 0.21874968 0.18105539\n",
      " 0.1894663  0.01751195 0.98341568 0.11574495 0.39795508 0.05434378\n",
      " 0.74314428 0.59625459 0.18919863 0.12736    0.47130353 0.69372999\n",
      " 0.44376452 0.3908313  0.22886027 0.76622032 0.35775693 0.03291204\n",
      " 0.22884941 0.50153652 0.50594338 0.54894926 0.12391786 0.10779029\n",
      " 0.66085506 0.06930079 0.49232845 0.61517436 0.03830083 0.15720857\n",
      " 0.43768283 0.10238182 0.8311183  0.41808204 0.08277559 0.00497133\n",
      " 0.29518533 0.45987027 0.59029971 0.05126233 0.18872483 0.84990943\n",
      " 0.16075367 0.83043882 0.27841529 0.67423296 0.51792666 0.17685048\n",
      " 0.20939562 0.02910203 0.1600481  0.33031947 0.00239369 0.98071189]\n",
      "lb [0. 0. 0. 0. 0. 0. 0. 0. 0. 0. 0. 0. 0. 0. 0. 0. 0. 0. 0. 0. 0. 0. 0. 0.\n",
      " 0. 0. 0. 0. 0. 0. 0. 0. 0. 0. 0. 0. 0. 0. 0. 0. 0. 0. 0. 0. 0. 0. 0. 0.\n",
      " 0. 0. 0. 0. 0. 0. 0. 0. 0. 0. 0. 0. 0. 0. 0. 0. 0. 0. 0. 0. 0. 0. 0. 0.]\n",
      "ub [1. 1. 1. 1. 1. 1. 1. 1. 1. 1. 1. 1. 1. 1. 1. 1. 1. 1. 1. 1. 1. 1. 1. 1.\n",
      " 1. 1. 1. 1. 1. 1. 1. 1. 1. 1. 1. 1. 1. 1. 1. 1. 1. 1. 1. 1. 1. 1. 1. 1.\n",
      " 1. 1. 1. 1. 1. 1. 1. 1. 1. 1. 1. 1. 1. 1. 1. 1. 1. 1. 1. 1. 1. 1. 1. 1.]\n",
      "\n",
      "==========\n",
      "iteration: 34\n",
      "==========\n",
      "----------------------------------------------------------------------------------------------------\n",
      "node0  is good:False  is leaf:False   val:-1407.0320      uct:inf            sp/n:34/34      parent:----       kids:node1     node2     \n",
      "node1  is good:True   is leaf:True    val:-1279.0640      uct:-1260.8100     sp/n:14/14      parent:node0      kids:\n",
      "node2  is good:False  is leaf:True    val:-1496.6110      uct:-1481.3380     sp/n:20/20      parent:node0      kids:\n",
      "----------------------------------------------------------------------------------------------------\n",
      "=> node1 \n",
      "total samples: 35\n",
      "current best f(x): [[1108.61370541]]\n",
      "current best x: [0.5090061  0.84110719 0.75332577 0.29798003 0.2663069  0.41526914\n",
      " 0.63193804 0.60623533 0.86021172 0.42647318 0.07756184 0.05623836\n",
      " 0.14838897 0.83029406 0.05041727 0.14350259 0.21874968 0.18105539\n",
      " 0.1894663  0.01751195 0.98341568 0.11574495 0.39795508 0.05434378\n",
      " 0.74314428 0.59625459 0.18919863 0.12736    0.47130353 0.69372999\n",
      " 0.44376452 0.3908313  0.22886027 0.76622032 0.35775693 0.03291204\n",
      " 0.22884941 0.50153652 0.50594338 0.54894926 0.12391786 0.10779029\n",
      " 0.66085506 0.06930079 0.49232845 0.61517436 0.03830083 0.15720857\n",
      " 0.43768283 0.10238182 0.8311183  0.41808204 0.08277559 0.00497133\n",
      " 0.29518533 0.45987027 0.59029971 0.05126233 0.18872483 0.84990943\n",
      " 0.16075367 0.83043882 0.27841529 0.67423296 0.51792666 0.17685048\n",
      " 0.20939562 0.02910203 0.1600481  0.33031947 0.00239369 0.98071189]\n",
      "lb [0. 0. 0. 0. 0. 0. 0. 0. 0. 0. 0. 0. 0. 0. 0. 0. 0. 0. 0. 0. 0. 0. 0. 0.\n",
      " 0. 0. 0. 0. 0. 0. 0. 0. 0. 0. 0. 0. 0. 0. 0. 0. 0. 0. 0. 0. 0. 0. 0. 0.\n",
      " 0. 0. 0. 0. 0. 0. 0. 0. 0. 0. 0. 0. 0. 0. 0. 0. 0. 0. 0. 0. 0. 0. 0. 0.]\n",
      "ub [1. 1. 1. 1. 1. 1. 1. 1. 1. 1. 1. 1. 1. 1. 1. 1. 1. 1. 1. 1. 1. 1. 1. 1.\n",
      " 1. 1. 1. 1. 1. 1. 1. 1. 1. 1. 1. 1. 1. 1. 1. 1. 1. 1. 1. 1. 1. 1. 1. 1.\n",
      " 1. 1. 1. 1. 1. 1. 1. 1. 1. 1. 1. 1. 1. 1. 1. 1. 1. 1. 1. 1. 1. 1. 1. 1.]\n",
      "\n",
      "==========\n",
      "iteration: 35\n",
      "==========\n",
      "----------------------------------------------------------------------------------------------------\n",
      "node0  is good:False  is leaf:False   val:-1404.4010      uct:inf            sp/n:35/35      parent:----       kids:node1     node2     \n",
      "node1  is good:True   is leaf:True    val:-1281.4550      uct:-1263.6920     sp/n:15/15      parent:node0      kids:\n",
      "node2  is good:False  is leaf:True    val:-1496.6110      uct:-1481.2270     sp/n:20/20      parent:node0      kids:\n",
      "----------------------------------------------------------------------------------------------------\n",
      "=> node1 \n",
      "total samples: 36\n",
      "current best f(x): [[1108.61370541]]\n",
      "current best x: [0.5090061  0.84110719 0.75332577 0.29798003 0.2663069  0.41526914\n",
      " 0.63193804 0.60623533 0.86021172 0.42647318 0.07756184 0.05623836\n",
      " 0.14838897 0.83029406 0.05041727 0.14350259 0.21874968 0.18105539\n",
      " 0.1894663  0.01751195 0.98341568 0.11574495 0.39795508 0.05434378\n",
      " 0.74314428 0.59625459 0.18919863 0.12736    0.47130353 0.69372999\n",
      " 0.44376452 0.3908313  0.22886027 0.76622032 0.35775693 0.03291204\n",
      " 0.22884941 0.50153652 0.50594338 0.54894926 0.12391786 0.10779029\n",
      " 0.66085506 0.06930079 0.49232845 0.61517436 0.03830083 0.15720857\n",
      " 0.43768283 0.10238182 0.8311183  0.41808204 0.08277559 0.00497133\n",
      " 0.29518533 0.45987027 0.59029971 0.05126233 0.18872483 0.84990943\n",
      " 0.16075367 0.83043882 0.27841529 0.67423296 0.51792666 0.17685048\n",
      " 0.20939562 0.02910203 0.1600481  0.33031947 0.00239369 0.98071189]\n",
      "lb [0. 0. 0. 0. 0. 0. 0. 0. 0. 0. 0. 0. 0. 0. 0. 0. 0. 0. 0. 0. 0. 0. 0. 0.\n",
      " 0. 0. 0. 0. 0. 0. 0. 0. 0. 0. 0. 0. 0. 0. 0. 0. 0. 0. 0. 0. 0. 0. 0. 0.\n",
      " 0. 0. 0. 0. 0. 0. 0. 0. 0. 0. 0. 0. 0. 0. 0. 0. 0. 0. 0. 0. 0. 0. 0. 0.]\n",
      "ub [1. 1. 1. 1. 1. 1. 1. 1. 1. 1. 1. 1. 1. 1. 1. 1. 1. 1. 1. 1. 1. 1. 1. 1.\n",
      " 1. 1. 1. 1. 1. 1. 1. 1. 1. 1. 1. 1. 1. 1. 1. 1. 1. 1. 1. 1. 1. 1. 1. 1.\n",
      " 1. 1. 1. 1. 1. 1. 1. 1. 1. 1. 1. 1. 1. 1. 1. 1. 1. 1. 1. 1. 1. 1. 1. 1.]\n",
      "\n",
      "==========\n",
      "iteration: 36\n",
      "==========\n",
      "----------------------------------------------------------------------------------------------------\n",
      "node0  is good:False  is leaf:False   val:-1400.9590      uct:inf            sp/n:36/36      parent:----       kids:node1     node2     \n",
      "node1  is good:True   is leaf:True    val:-1281.3940      uct:-1264.0740     sp/n:16/16      parent:node0      kids:\n",
      "node2  is good:False  is leaf:True    val:-1496.6110      uct:-1481.1190     sp/n:20/20      parent:node0      kids:\n",
      "----------------------------------------------------------------------------------------------------\n",
      "=> node1 \n",
      "total samples: 37\n",
      "current best f(x): [[1108.61370541]]\n",
      "current best x: [0.5090061  0.84110719 0.75332577 0.29798003 0.2663069  0.41526914\n",
      " 0.63193804 0.60623533 0.86021172 0.42647318 0.07756184 0.05623836\n",
      " 0.14838897 0.83029406 0.05041727 0.14350259 0.21874968 0.18105539\n",
      " 0.1894663  0.01751195 0.98341568 0.11574495 0.39795508 0.05434378\n",
      " 0.74314428 0.59625459 0.18919863 0.12736    0.47130353 0.69372999\n",
      " 0.44376452 0.3908313  0.22886027 0.76622032 0.35775693 0.03291204\n",
      " 0.22884941 0.50153652 0.50594338 0.54894926 0.12391786 0.10779029\n",
      " 0.66085506 0.06930079 0.49232845 0.61517436 0.03830083 0.15720857\n",
      " 0.43768283 0.10238182 0.8311183  0.41808204 0.08277559 0.00497133\n",
      " 0.29518533 0.45987027 0.59029971 0.05126233 0.18872483 0.84990943\n",
      " 0.16075367 0.83043882 0.27841529 0.67423296 0.51792666 0.17685048\n",
      " 0.20939562 0.02910203 0.1600481  0.33031947 0.00239369 0.98071189]\n",
      "lb [0. 0. 0. 0. 0. 0. 0. 0. 0. 0. 0. 0. 0. 0. 0. 0. 0. 0. 0. 0. 0. 0. 0. 0.\n",
      " 0. 0. 0. 0. 0. 0. 0. 0. 0. 0. 0. 0. 0. 0. 0. 0. 0. 0. 0. 0. 0. 0. 0. 0.\n",
      " 0. 0. 0. 0. 0. 0. 0. 0. 0. 0. 0. 0. 0. 0. 0. 0. 0. 0. 0. 0. 0. 0. 0. 0.]\n",
      "ub [1. 1. 1. 1. 1. 1. 1. 1. 1. 1. 1. 1. 1. 1. 1. 1. 1. 1. 1. 1. 1. 1. 1. 1.\n",
      " 1. 1. 1. 1. 1. 1. 1. 1. 1. 1. 1. 1. 1. 1. 1. 1. 1. 1. 1. 1. 1. 1. 1. 1.\n",
      " 1. 1. 1. 1. 1. 1. 1. 1. 1. 1. 1. 1. 1. 1. 1. 1. 1. 1. 1. 1. 1. 1. 1. 1.]\n",
      "\n",
      "==========\n",
      "iteration: 37\n",
      "==========\n",
      "----------------------------------------------------------------------------------------------------\n",
      "node0  is good:False  is leaf:False   val:-1398.1680      uct:inf            sp/n:37/37      parent:----       kids:node1     node2     \n",
      "node1  is good:True   is leaf:True    val:-1282.3530      uct:-1265.4340     sp/n:17/17      parent:node0      kids:\n",
      "node2  is good:False  is leaf:True    val:-1496.6110      uct:-1481.0120     sp/n:20/20      parent:node0      kids:\n",
      "----------------------------------------------------------------------------------------------------\n",
      "=> node1 \n",
      "total samples: 38\n",
      "current best f(x): [[1108.61370541]]\n",
      "current best x: [0.5090061  0.84110719 0.75332577 0.29798003 0.2663069  0.41526914\n",
      " 0.63193804 0.60623533 0.86021172 0.42647318 0.07756184 0.05623836\n",
      " 0.14838897 0.83029406 0.05041727 0.14350259 0.21874968 0.18105539\n",
      " 0.1894663  0.01751195 0.98341568 0.11574495 0.39795508 0.05434378\n",
      " 0.74314428 0.59625459 0.18919863 0.12736    0.47130353 0.69372999\n",
      " 0.44376452 0.3908313  0.22886027 0.76622032 0.35775693 0.03291204\n",
      " 0.22884941 0.50153652 0.50594338 0.54894926 0.12391786 0.10779029\n",
      " 0.66085506 0.06930079 0.49232845 0.61517436 0.03830083 0.15720857\n",
      " 0.43768283 0.10238182 0.8311183  0.41808204 0.08277559 0.00497133\n",
      " 0.29518533 0.45987027 0.59029971 0.05126233 0.18872483 0.84990943\n",
      " 0.16075367 0.83043882 0.27841529 0.67423296 0.51792666 0.17685048\n",
      " 0.20939562 0.02910203 0.1600481  0.33031947 0.00239369 0.98071189]\n",
      "lb [0. 0. 0. 0. 0. 0. 0. 0. 0. 0. 0. 0. 0. 0. 0. 0. 0. 0. 0. 0. 0. 0. 0. 0.\n",
      " 0. 0. 0. 0. 0. 0. 0. 0. 0. 0. 0. 0. 0. 0. 0. 0. 0. 0. 0. 0. 0. 0. 0. 0.\n",
      " 0. 0. 0. 0. 0. 0. 0. 0. 0. 0. 0. 0. 0. 0. 0. 0. 0. 0. 0. 0. 0. 0. 0. 0.]\n",
      "ub [1. 1. 1. 1. 1. 1. 1. 1. 1. 1. 1. 1. 1. 1. 1. 1. 1. 1. 1. 1. 1. 1. 1. 1.\n",
      " 1. 1. 1. 1. 1. 1. 1. 1. 1. 1. 1. 1. 1. 1. 1. 1. 1. 1. 1. 1. 1. 1. 1. 1.\n",
      " 1. 1. 1. 1. 1. 1. 1. 1. 1. 1. 1. 1. 1. 1. 1. 1. 1. 1. 1. 1. 1. 1. 1. 1.]\n",
      "\n",
      "==========\n",
      "iteration: 38\n",
      "==========\n",
      "----------------------------------------------------------------------------------------------------\n",
      "node0  is good:False  is leaf:False   val:-1397.8409      uct:inf            sp/n:38/38      parent:----       kids:node1     node2     \n",
      "node1  is good:True   is leaf:True    val:-1288.0980      uct:-1271.5450     sp/n:18/18      parent:node0      kids:\n",
      "node2  is good:False  is leaf:True    val:-1496.6110      uct:-1480.9080     sp/n:20/20      parent:node0      kids:\n",
      "----------------------------------------------------------------------------------------------------\n",
      "=> node1 \n",
      "total samples: 39\n",
      "current best f(x): [[1108.61370541]]\n",
      "current best x: [0.5090061  0.84110719 0.75332577 0.29798003 0.2663069  0.41526914\n",
      " 0.63193804 0.60623533 0.86021172 0.42647318 0.07756184 0.05623836\n",
      " 0.14838897 0.83029406 0.05041727 0.14350259 0.21874968 0.18105539\n",
      " 0.1894663  0.01751195 0.98341568 0.11574495 0.39795508 0.05434378\n",
      " 0.74314428 0.59625459 0.18919863 0.12736    0.47130353 0.69372999\n",
      " 0.44376452 0.3908313  0.22886027 0.76622032 0.35775693 0.03291204\n",
      " 0.22884941 0.50153652 0.50594338 0.54894926 0.12391786 0.10779029\n",
      " 0.66085506 0.06930079 0.49232845 0.61517436 0.03830083 0.15720857\n",
      " 0.43768283 0.10238182 0.8311183  0.41808204 0.08277559 0.00497133\n",
      " 0.29518533 0.45987027 0.59029971 0.05126233 0.18872483 0.84990943\n",
      " 0.16075367 0.83043882 0.27841529 0.67423296 0.51792666 0.17685048\n",
      " 0.20939562 0.02910203 0.1600481  0.33031947 0.00239369 0.98071189]\n",
      "lb [0. 0. 0. 0. 0. 0. 0. 0. 0. 0. 0. 0. 0. 0. 0. 0. 0. 0. 0. 0. 0. 0. 0. 0.\n",
      " 0. 0. 0. 0. 0. 0. 0. 0. 0. 0. 0. 0. 0. 0. 0. 0. 0. 0. 0. 0. 0. 0. 0. 0.\n",
      " 0. 0. 0. 0. 0. 0. 0. 0. 0. 0. 0. 0. 0. 0. 0. 0. 0. 0. 0. 0. 0. 0. 0. 0.]\n",
      "ub [1. 1. 1. 1. 1. 1. 1. 1. 1. 1. 1. 1. 1. 1. 1. 1. 1. 1. 1. 1. 1. 1. 1. 1.\n",
      " 1. 1. 1. 1. 1. 1. 1. 1. 1. 1. 1. 1. 1. 1. 1. 1. 1. 1. 1. 1. 1. 1. 1. 1.\n",
      " 1. 1. 1. 1. 1. 1. 1. 1. 1. 1. 1. 1. 1. 1. 1. 1. 1. 1. 1. 1. 1. 1. 1. 1.]\n",
      "\n",
      "==========\n",
      "iteration: 39\n",
      "==========\n",
      "----------------------------------------------------------------------------------------------------\n",
      "node0  is good:False  is leaf:False   val:-1395.0170      uct:inf            sp/n:39/39      parent:----       kids:node1     node2     \n",
      "node1  is good:True   is leaf:True    val:-1288.0760      uct:-1271.8610     sp/n:19/19      parent:node0      kids:\n",
      "node2  is good:False  is leaf:True    val:-1496.6110      uct:-1480.8060     sp/n:20/20      parent:node0      kids:\n",
      "----------------------------------------------------------------------------------------------------\n",
      "=> node1 \n",
      "total samples: 40\n",
      "current best f(x): [[1108.61370541]]\n",
      "current best x: [0.5090061  0.84110719 0.75332577 0.29798003 0.2663069  0.41526914\n",
      " 0.63193804 0.60623533 0.86021172 0.42647318 0.07756184 0.05623836\n",
      " 0.14838897 0.83029406 0.05041727 0.14350259 0.21874968 0.18105539\n",
      " 0.1894663  0.01751195 0.98341568 0.11574495 0.39795508 0.05434378\n",
      " 0.74314428 0.59625459 0.18919863 0.12736    0.47130353 0.69372999\n",
      " 0.44376452 0.3908313  0.22886027 0.76622032 0.35775693 0.03291204\n",
      " 0.22884941 0.50153652 0.50594338 0.54894926 0.12391786 0.10779029\n",
      " 0.66085506 0.06930079 0.49232845 0.61517436 0.03830083 0.15720857\n",
      " 0.43768283 0.10238182 0.8311183  0.41808204 0.08277559 0.00497133\n",
      " 0.29518533 0.45987027 0.59029971 0.05126233 0.18872483 0.84990943\n",
      " 0.16075367 0.83043882 0.27841529 0.67423296 0.51792666 0.17685048\n",
      " 0.20939562 0.02910203 0.1600481  0.33031947 0.00239369 0.98071189]\n",
      "lb [0. 0. 0. 0. 0. 0. 0. 0. 0. 0. 0. 0. 0. 0. 0. 0. 0. 0. 0. 0. 0. 0. 0. 0.\n",
      " 0. 0. 0. 0. 0. 0. 0. 0. 0. 0. 0. 0. 0. 0. 0. 0. 0. 0. 0. 0. 0. 0. 0. 0.\n",
      " 0. 0. 0. 0. 0. 0. 0. 0. 0. 0. 0. 0. 0. 0. 0. 0. 0. 0. 0. 0. 0. 0. 0. 0.]\n",
      "ub [1. 1. 1. 1. 1. 1. 1. 1. 1. 1. 1. 1. 1. 1. 1. 1. 1. 1. 1. 1. 1. 1. 1. 1.\n",
      " 1. 1. 1. 1. 1. 1. 1. 1. 1. 1. 1. 1. 1. 1. 1. 1. 1. 1. 1. 1. 1. 1. 1. 1.\n",
      " 1. 1. 1. 1. 1. 1. 1. 1. 1. 1. 1. 1. 1. 1. 1. 1. 1. 1. 1. 1. 1. 1. 1. 1.]\n",
      "\n",
      "==========\n",
      "iteration: 40\n",
      "==========\n",
      "----------------------------------------------------------------------------------------------------\n",
      "node0  is good:False  is leaf:False   val:-1396.5310      uct:inf            sp/n:40/40      parent:----       kids:node1     node2     \n",
      "node1  is good:True   is leaf:True    val:-1288.0760      uct:-1271.7580     sp/n:19/19      parent:node0      kids:\n",
      "node2  is good:False  is leaf:True    val:-1494.6560      uct:-1479.1340     sp/n:21/21      parent:node0      kids:\n",
      "----------------------------------------------------------------------------------------------------\n",
      "=> node1 \n",
      "total samples: 41\n",
      "current best f(x): [[1108.61370541]]\n",
      "current best x: [0.5090061  0.84110719 0.75332577 0.29798003 0.2663069  0.41526914\n",
      " 0.63193804 0.60623533 0.86021172 0.42647318 0.07756184 0.05623836\n",
      " 0.14838897 0.83029406 0.05041727 0.14350259 0.21874968 0.18105539\n",
      " 0.1894663  0.01751195 0.98341568 0.11574495 0.39795508 0.05434378\n",
      " 0.74314428 0.59625459 0.18919863 0.12736    0.47130353 0.69372999\n",
      " 0.44376452 0.3908313  0.22886027 0.76622032 0.35775693 0.03291204\n",
      " 0.22884941 0.50153652 0.50594338 0.54894926 0.12391786 0.10779029\n",
      " 0.66085506 0.06930079 0.49232845 0.61517436 0.03830083 0.15720857\n",
      " 0.43768283 0.10238182 0.8311183  0.41808204 0.08277559 0.00497133\n",
      " 0.29518533 0.45987027 0.59029971 0.05126233 0.18872483 0.84990943\n",
      " 0.16075367 0.83043882 0.27841529 0.67423296 0.51792666 0.17685048\n",
      " 0.20939562 0.02910203 0.1600481  0.33031947 0.00239369 0.98071189]\n",
      "lb [0. 0. 0. 0. 0. 0. 0. 0. 0. 0. 0. 0. 0. 0. 0. 0. 0. 0. 0. 0. 0. 0. 0. 0.\n",
      " 0. 0. 0. 0. 0. 0. 0. 0. 0. 0. 0. 0. 0. 0. 0. 0. 0. 0. 0. 0. 0. 0. 0. 0.\n",
      " 0. 0. 0. 0. 0. 0. 0. 0. 0. 0. 0. 0. 0. 0. 0. 0. 0. 0. 0. 0. 0. 0. 0. 0.]\n",
      "ub [1. 1. 1. 1. 1. 1. 1. 1. 1. 1. 1. 1. 1. 1. 1. 1. 1. 1. 1. 1. 1. 1. 1. 1.\n",
      " 1. 1. 1. 1. 1. 1. 1. 1. 1. 1. 1. 1. 1. 1. 1. 1. 1. 1. 1. 1. 1. 1. 1. 1.\n",
      " 1. 1. 1. 1. 1. 1. 1. 1. 1. 1. 1. 1. 1. 1. 1. 1. 1. 1. 1. 1. 1. 1. 1. 1.]\n",
      "\n",
      "==========\n",
      "iteration: 41\n",
      "==========\n",
      "----------------------------------------------------------------------------------------------------\n",
      "node0  is good:False  is leaf:False   val:-1396.4600      uct:inf            sp/n:41/41      parent:----       kids:node1     node2     \n",
      "node1  is good:True   is leaf:True    val:-1288.0760      uct:-1271.6570     sp/n:19/19      parent:node0      kids:\n",
      "node2  is good:False  is leaf:True    val:-1490.0630      uct:-1474.8040     sp/n:22/22      parent:node0      kids:\n",
      "----------------------------------------------------------------------------------------------------\n",
      "=> node1 \n",
      "total samples: 42\n",
      "current best f(x): [[1108.61370541]]\n",
      "current best x: [0.5090061  0.84110719 0.75332577 0.29798003 0.2663069  0.41526914\n",
      " 0.63193804 0.60623533 0.86021172 0.42647318 0.07756184 0.05623836\n",
      " 0.14838897 0.83029406 0.05041727 0.14350259 0.21874968 0.18105539\n",
      " 0.1894663  0.01751195 0.98341568 0.11574495 0.39795508 0.05434378\n",
      " 0.74314428 0.59625459 0.18919863 0.12736    0.47130353 0.69372999\n",
      " 0.44376452 0.3908313  0.22886027 0.76622032 0.35775693 0.03291204\n",
      " 0.22884941 0.50153652 0.50594338 0.54894926 0.12391786 0.10779029\n",
      " 0.66085506 0.06930079 0.49232845 0.61517436 0.03830083 0.15720857\n",
      " 0.43768283 0.10238182 0.8311183  0.41808204 0.08277559 0.00497133\n",
      " 0.29518533 0.45987027 0.59029971 0.05126233 0.18872483 0.84990943\n",
      " 0.16075367 0.83043882 0.27841529 0.67423296 0.51792666 0.17685048\n",
      " 0.20939562 0.02910203 0.1600481  0.33031947 0.00239369 0.98071189]\n",
      "lb [0. 0. 0. 0. 0. 0. 0. 0. 0. 0. 0. 0. 0. 0. 0. 0. 0. 0. 0. 0. 0. 0. 0. 0.\n",
      " 0. 0. 0. 0. 0. 0. 0. 0. 0. 0. 0. 0. 0. 0. 0. 0. 0. 0. 0. 0. 0. 0. 0. 0.\n",
      " 0. 0. 0. 0. 0. 0. 0. 0. 0. 0. 0. 0. 0. 0. 0. 0. 0. 0. 0. 0. 0. 0. 0. 0.]\n",
      "ub [1. 1. 1. 1. 1. 1. 1. 1. 1. 1. 1. 1. 1. 1. 1. 1. 1. 1. 1. 1. 1. 1. 1. 1.\n",
      " 1. 1. 1. 1. 1. 1. 1. 1. 1. 1. 1. 1. 1. 1. 1. 1. 1. 1. 1. 1. 1. 1. 1. 1.\n",
      " 1. 1. 1. 1. 1. 1. 1. 1. 1. 1. 1. 1. 1. 1. 1. 1. 1. 1. 1. 1. 1. 1. 1. 1.]\n",
      "\n",
      "==========\n",
      "iteration: 42\n",
      "==========\n",
      "----------------------------------------------------------------------------------------------------\n",
      "node0  is good:False  is leaf:False   val:-1393.5690      uct:inf            sp/n:42/42      parent:----       kids:node1     node2     \n",
      "node1  is good:True   is leaf:True    val:-1287.4260      uct:-1271.3250     sp/n:20/20      parent:node0      kids:\n",
      "node2  is good:False  is leaf:True    val:-1490.0630      uct:-1474.7120     sp/n:22/22      parent:node0      kids:\n",
      "----------------------------------------------------------------------------------------------------\n",
      "=> node1 \n",
      "total samples: 43\n",
      "current best f(x): [[1108.61370541]]\n",
      "current best x: [0.5090061  0.84110719 0.75332577 0.29798003 0.2663069  0.41526914\n",
      " 0.63193804 0.60623533 0.86021172 0.42647318 0.07756184 0.05623836\n",
      " 0.14838897 0.83029406 0.05041727 0.14350259 0.21874968 0.18105539\n",
      " 0.1894663  0.01751195 0.98341568 0.11574495 0.39795508 0.05434378\n",
      " 0.74314428 0.59625459 0.18919863 0.12736    0.47130353 0.69372999\n",
      " 0.44376452 0.3908313  0.22886027 0.76622032 0.35775693 0.03291204\n",
      " 0.22884941 0.50153652 0.50594338 0.54894926 0.12391786 0.10779029\n",
      " 0.66085506 0.06930079 0.49232845 0.61517436 0.03830083 0.15720857\n",
      " 0.43768283 0.10238182 0.8311183  0.41808204 0.08277559 0.00497133\n",
      " 0.29518533 0.45987027 0.59029971 0.05126233 0.18872483 0.84990943\n",
      " 0.16075367 0.83043882 0.27841529 0.67423296 0.51792666 0.17685048\n",
      " 0.20939562 0.02910203 0.1600481  0.33031947 0.00239369 0.98071189]\n",
      "lb [0. 0. 0. 0. 0. 0. 0. 0. 0. 0. 0. 0. 0. 0. 0. 0. 0. 0. 0. 0. 0. 0. 0. 0.\n",
      " 0. 0. 0. 0. 0. 0. 0. 0. 0. 0. 0. 0. 0. 0. 0. 0. 0. 0. 0. 0. 0. 0. 0. 0.\n",
      " 0. 0. 0. 0. 0. 0. 0. 0. 0. 0. 0. 0. 0. 0. 0. 0. 0. 0. 0. 0. 0. 0. 0. 0.]\n",
      "ub [1. 1. 1. 1. 1. 1. 1. 1. 1. 1. 1. 1. 1. 1. 1. 1. 1. 1. 1. 1. 1. 1. 1. 1.\n",
      " 1. 1. 1. 1. 1. 1. 1. 1. 1. 1. 1. 1. 1. 1. 1. 1. 1. 1. 1. 1. 1. 1. 1. 1.\n",
      " 1. 1. 1. 1. 1. 1. 1. 1. 1. 1. 1. 1. 1. 1. 1. 1. 1. 1. 1. 1. 1. 1. 1. 1.]\n",
      "\n",
      "==========\n",
      "iteration: 43\n",
      "==========\n",
      "----------------------------------------------------------------------------------------------------\n",
      "node0  is good:False  is leaf:False   val:-1393.5040      uct:inf            sp/n:43/43      parent:----       kids:node1     node2     \n",
      "node1  is good:True   is leaf:True    val:-1282.2500      uct:-1265.6340     sp/n:19/19      parent:node0      kids:\n",
      "node2  is good:False  is leaf:True    val:-1481.5800      uct:-1466.7960     sp/n:24/24      parent:node0      kids:\n",
      "----------------------------------------------------------------------------------------------------\n",
      "=> node1 \n",
      "total samples: 44\n",
      "current best f(x): [[1081.0700602]]\n",
      "current best x: [0.69096483 0.70420597 0.9280816  0.27833663 0.27231759 0.31024797\n",
      " 0.42868411 0.78553228 0.69191042 0.33447455 0.26889269 0.02749313\n",
      " 0.04665275 0.99678456 0.2351155  0.05895695 0.152972   0.18014717\n",
      " 0.17983368 0.11717195 0.77983836 0.06245863 0.31236834 0.11720251\n",
      " 0.76670157 0.54297479 0.17427448 0.06230152 0.49410496 0.7412902\n",
      " 0.43104981 0.5349364  0.15576605 0.78867592 0.31949043 0.05288825\n",
      " 0.0397771  0.32159892 0.32697332 0.5479644  0.23988947 0.22596662\n",
      " 0.71790354 0.06661495 0.3306287  0.61768817 0.02614385 0.03526043\n",
      " 0.27497751 0.26149212 0.90715032 0.51744706 0.06392254 0.13005605\n",
      " 0.2463966  0.37192673 0.65066086 0.05404497 0.17798014 0.76128151\n",
      " 0.0770935  0.70175813 0.09027352 0.74607347 0.68680767 0.11961447\n",
      " 0.08205804 0.11740269 0.09096871 0.19292506 0.10548918 0.79180985]\n",
      "lb [0. 0. 0. 0. 0. 0. 0. 0. 0. 0. 0. 0. 0. 0. 0. 0. 0. 0. 0. 0. 0. 0. 0. 0.\n",
      " 0. 0. 0. 0. 0. 0. 0. 0. 0. 0. 0. 0. 0. 0. 0. 0. 0. 0. 0. 0. 0. 0. 0. 0.\n",
      " 0. 0. 0. 0. 0. 0. 0. 0. 0. 0. 0. 0. 0. 0. 0. 0. 0. 0. 0. 0. 0. 0. 0. 0.]\n",
      "ub [1. 1. 1. 1. 1. 1. 1. 1. 1. 1. 1. 1. 1. 1. 1. 1. 1. 1. 1. 1. 1. 1. 1. 1.\n",
      " 1. 1. 1. 1. 1. 1. 1. 1. 1. 1. 1. 1. 1. 1. 1. 1. 1. 1. 1. 1. 1. 1. 1. 1.\n",
      " 1. 1. 1. 1. 1. 1. 1. 1. 1. 1. 1. 1. 1. 1. 1. 1. 1. 1. 1. 1. 1. 1. 1. 1.]\n",
      "\n",
      "==========\n",
      "iteration: 44\n",
      "==========\n",
      "----------------------------------------------------------------------------------------------------\n",
      "node0  is good:False  is leaf:False   val:-1386.4030      uct:inf            sp/n:44/44      parent:----       kids:node1     node2     \n",
      "node1  is good:True   is leaf:True    val:-1266.7841      uct:-1250.0710     sp/n:19/19      parent:node0      kids:\n",
      "node2  is good:False  is leaf:True    val:-1477.3140      uct:-1462.7450     sp/n:25/25      parent:node0      kids:\n",
      "----------------------------------------------------------------------------------------------------\n",
      "=> node1 \n",
      "total samples: 45\n",
      "current best f(x): [[1081.0700602]]\n",
      "current best x: [0.69096483 0.70420597 0.9280816  0.27833663 0.27231759 0.31024797\n",
      " 0.42868411 0.78553228 0.69191042 0.33447455 0.26889269 0.02749313\n",
      " 0.04665275 0.99678456 0.2351155  0.05895695 0.152972   0.18014717\n",
      " 0.17983368 0.11717195 0.77983836 0.06245863 0.31236834 0.11720251\n",
      " 0.76670157 0.54297479 0.17427448 0.06230152 0.49410496 0.7412902\n",
      " 0.43104981 0.5349364  0.15576605 0.78867592 0.31949043 0.05288825\n",
      " 0.0397771  0.32159892 0.32697332 0.5479644  0.23988947 0.22596662\n",
      " 0.71790354 0.06661495 0.3306287  0.61768817 0.02614385 0.03526043\n",
      " 0.27497751 0.26149212 0.90715032 0.51744706 0.06392254 0.13005605\n",
      " 0.2463966  0.37192673 0.65066086 0.05404497 0.17798014 0.76128151\n",
      " 0.0770935  0.70175813 0.09027352 0.74607347 0.68680767 0.11961447\n",
      " 0.08205804 0.11740269 0.09096871 0.19292506 0.10548918 0.79180985]\n",
      "lb [0. 0. 0. 0. 0. 0. 0. 0. 0. 0. 0. 0. 0. 0. 0. 0. 0. 0. 0. 0. 0. 0. 0. 0.\n",
      " 0. 0. 0. 0. 0. 0. 0. 0. 0. 0. 0. 0. 0. 0. 0. 0. 0. 0. 0. 0. 0. 0. 0. 0.\n",
      " 0. 0. 0. 0. 0. 0. 0. 0. 0. 0. 0. 0. 0. 0. 0. 0. 0. 0. 0. 0. 0. 0. 0. 0.]\n",
      "ub [1. 1. 1. 1. 1. 1. 1. 1. 1. 1. 1. 1. 1. 1. 1. 1. 1. 1. 1. 1. 1. 1. 1. 1.\n",
      " 1. 1. 1. 1. 1. 1. 1. 1. 1. 1. 1. 1. 1. 1. 1. 1. 1. 1. 1. 1. 1. 1. 1. 1.\n",
      " 1. 1. 1. 1. 1. 1. 1. 1. 1. 1. 1. 1. 1. 1. 1. 1. 1. 1. 1. 1. 1. 1. 1. 1.]\n",
      "\n",
      "==========\n",
      "iteration: 45\n",
      "==========\n",
      "----------------------------------------------------------------------------------------------------\n",
      "node0  is good:False  is leaf:False   val:-1386.1851      uct:inf            sp/n:45/45      parent:----       kids:node1     node2     \n",
      "node1  is good:True   is leaf:True    val:-1266.7841      uct:-1249.9770     sp/n:19/19      parent:node0      kids:\n",
      "node2  is good:False  is leaf:False   val:-1473.4390      uct:-1459.0720     sp/n:26/26      parent:node0      kids:node3     node4     \n",
      "node3  is good:True   is leaf:True    val:-1419.0430      uct:-1400.6060     sp/n:12/12      parent:node2      kids:\n",
      "node4  is good:False  is leaf:True    val:-1520.0649      uct:-1502.9950     sp/n:14/14      parent:node2      kids:\n",
      "----------------------------------------------------------------------------------------------------\n",
      "=> node1 \n",
      "total samples: 46\n",
      "current best f(x): [[1081.0700602]]\n",
      "current best x: [0.69096483 0.70420597 0.9280816  0.27833663 0.27231759 0.31024797\n",
      " 0.42868411 0.78553228 0.69191042 0.33447455 0.26889269 0.02749313\n",
      " 0.04665275 0.99678456 0.2351155  0.05895695 0.152972   0.18014717\n",
      " 0.17983368 0.11717195 0.77983836 0.06245863 0.31236834 0.11720251\n",
      " 0.76670157 0.54297479 0.17427448 0.06230152 0.49410496 0.7412902\n",
      " 0.43104981 0.5349364  0.15576605 0.78867592 0.31949043 0.05288825\n",
      " 0.0397771  0.32159892 0.32697332 0.5479644  0.23988947 0.22596662\n",
      " 0.71790354 0.06661495 0.3306287  0.61768817 0.02614385 0.03526043\n",
      " 0.27497751 0.26149212 0.90715032 0.51744706 0.06392254 0.13005605\n",
      " 0.2463966  0.37192673 0.65066086 0.05404497 0.17798014 0.76128151\n",
      " 0.0770935  0.70175813 0.09027352 0.74607347 0.68680767 0.11961447\n",
      " 0.08205804 0.11740269 0.09096871 0.19292506 0.10548918 0.79180985]\n",
      "lb [0. 0. 0. 0. 0. 0. 0. 0. 0. 0. 0. 0. 0. 0. 0. 0. 0. 0. 0. 0. 0. 0. 0. 0.\n",
      " 0. 0. 0. 0. 0. 0. 0. 0. 0. 0. 0. 0. 0. 0. 0. 0. 0. 0. 0. 0. 0. 0. 0. 0.\n",
      " 0. 0. 0. 0. 0. 0. 0. 0. 0. 0. 0. 0. 0. 0. 0. 0. 0. 0. 0. 0. 0. 0. 0. 0.]\n",
      "ub [1. 1. 1. 1. 1. 1. 1. 1. 1. 1. 1. 1. 1. 1. 1. 1. 1. 1. 1. 1. 1. 1. 1. 1.\n",
      " 1. 1. 1. 1. 1. 1. 1. 1. 1. 1. 1. 1. 1. 1. 1. 1. 1. 1. 1. 1. 1. 1. 1. 1.\n",
      " 1. 1. 1. 1. 1. 1. 1. 1. 1. 1. 1. 1. 1. 1. 1. 1. 1. 1. 1. 1. 1. 1. 1. 1.]\n",
      "\n",
      "==========\n",
      "iteration: 46\n",
      "==========\n"
     ]
    },
    {
     "name": "stderr",
     "output_type": "stream",
     "text": [
      "\n",
      "KeyboardInterrupt\n",
      "\n"
     ]
    }
   ],
   "source": [
    "f = myFunc()\n",
    "agent = MCTS(lb = f.lb,     # the lower bound of each problem dimensions\n",
    "             ub = f.ub,     # the upper bound of each problem dimensions\n",
    "             dims = f.dims, # the problem dimensions\n",
    "             ninits = 10,   # the number of random samples used in initializations \n",
    "             func = f       # function object to be optimized\n",
    "             )\n",
    "agent.search(iterations =1000)"
   ]
  },
  {
   "cell_type": "code",
   "execution_count": null,
   "id": "b49fba1a-d309-47e0-8cd4-1ee562d83e76",
   "metadata": {},
   "outputs": [],
   "source": []
  }
 ],
 "metadata": {
  "kernelspec": {
   "display_name": "Python 3 (ipykernel)",
   "language": "python",
   "name": "python3"
  },
  "language_info": {
   "codemirror_mode": {
    "name": "ipython",
    "version": 3
   },
   "file_extension": ".py",
   "mimetype": "text/x-python",
   "name": "python",
   "nbconvert_exporter": "python",
   "pygments_lexer": "ipython3",
   "version": "3.7.16"
  }
 },
 "nbformat": 4,
 "nbformat_minor": 5
}
